<svg viewBox="0 0 1011 954" xmlns="http://www.w3.org/2000/svg" fill-rule="evenodd" clip-rule="evenodd" stroke-linejoin="round" stroke-miterlimit="2"><path d="M773.395 297.963v618.29a6.5 6.5 0 0 1-6.5 6.5H203.973a6.5 6.5 0 0 1-6.5-6.5v-618.29a6.5 6.5 0 0 1 6.5-6.5h562.922a6.5 6.5 0 0 1 6.5 6.5zm-13 6.5H210.473v605.29h549.922v-605.29z"/><path d="M608.422 161.045v618.289a6.5 6.5 0 0 1-6.5 6.5H39a6.5 6.5 0 0 1-6.5-6.5v-618.29a6.5 6.5 0 0 1 6.5-6.499h562.923a6.5 6.5 0 0 1 6.5 6.5zm-13 6.5H45.5v605.29h549.922v-605.29z"/><path d="M829.74 127.685v618.29a6.5 6.5 0 0 1-6.499 6.5H260.318a6.5 6.5 0 0 1-6.499-6.5v-618.29a6.5 6.5 0 0 1 6.5-6.5H823.24a6.5 6.5 0 0 1 6.5 6.5zm-13 6.5H266.82v605.29H816.74v-605.29z"/><path d="M978.137 66.527v618.29a6.5 6.5 0 0 1-6.5 6.5H408.716a6.5 6.5 0 0 1-6.5-6.5V66.526a6.5 6.5 0 0 1 6.5-6.5h562.923a6.5 6.5 0 0 1 6.499 6.5zm-13 6.5H415.215v605.29h549.922V73.027z"/><path d="M660.574 36.777v618.289a6.5 6.5 0 0 1-6.499 6.5H91.152a6.5 6.5 0 0 1-6.5-6.5V36.776a6.5 6.5 0 0 1 6.5-6.499h562.923a6.5 6.5 0 0 1 6.5 6.5zm-13 6.5H97.654v605.29h549.922V43.276z"/></svg>