<?xml version="1.0" encoding="UTF-8" standalone="no"?><!DOCTYPE svg PUBLIC "-//W3C//DTD SVG 1.1//EN" "http://www.w3.org/Graphics/SVG/1.1/DTD/svg11.dtd"><svg width="100%" height="100%" viewBox="0 0 225 150" version="1.1" xmlns="http://www.w3.org/2000/svg" xmlns:xlink="http://www.w3.org/1999/xlink" xml:space="preserve" xmlns:serif="http://www.serif.com/" style="fill-rule:evenodd;clip-rule:evenodd;stroke-linejoin:round;stroke-miterlimit:2;"><path d="M112.494,27.654c26.088,-0 47.267,21.18 47.267,47.267c0,26.087 -21.179,47.267 -47.267,47.267c-26.087,-0 -47.267,-21.18 -47.267,-47.267c0,-26.087 21.18,-47.267 47.267,-47.267Zm0.271,7.267c-0.09,-0 -0.18,-0.001 -0.271,-0.001c-22.077,0 -40,17.924 -40,40.001c-0,22.077 17.923,40 40,40c0.091,0 0.181,0 0.271,-0l0,-16.568c-0.089,0.007 -0.18,0.01 -0.271,0.01c-2.005,0 -3.633,-1.628 -3.633,-3.633c-0,-1.2 0.583,-9.56 1.481,-16.081c-5.198,4.038 -12.147,8.723 -13.186,9.323c-1.737,1.003 -3.961,0.407 -4.963,-1.33c-1.003,-1.737 -0.407,-3.96 1.329,-4.963c1.04,-0.6 8.571,-4.275 14.668,-6.758c-6.097,-2.483 -13.628,-6.158 -14.668,-6.758c-1.736,-1.003 -2.332,-3.227 -1.329,-4.963c1.002,-1.737 3.226,-2.333 4.963,-1.33c1.039,0.6 7.988,5.285 13.186,9.323c-0.898,-6.521 -1.481,-14.881 -1.481,-16.081c-0,-2.005 1.628,-3.633 3.633,-3.633c0.091,-0 0.182,0.003 0.271,0.01l0,-16.568Zm0,63.432c1.879,-0.139 3.362,-1.709 3.362,-3.623c0,-1.2 -0.583,-9.56 -1.481,-16.081c5.199,4.038 12.147,8.723 13.187,9.323c1.736,1.003 3.96,0.407 4.963,-1.33c1.002,-1.737 0.406,-3.96 -1.33,-4.963c-1.039,-0.6 -8.571,-4.275 -14.667,-6.758c6.096,-2.483 13.628,-6.158 14.667,-6.758c1.736,-1.003 2.332,-3.227 1.33,-4.963c-1.003,-1.737 -3.227,-2.333 -4.963,-1.33c-1.04,0.6 -7.988,5.285 -13.187,9.323c0.898,-6.521 1.481,-14.881 1.481,-16.081c0,-1.914 -1.483,-3.485 -3.362,-3.623l0,46.864Z" style="fill:#626370;"/></svg>