<?xml version="1.0" encoding="UTF-8" standalone="no"?><!DOCTYPE svg PUBLIC "-//W3C//DTD SVG 1.1//EN" "http://www.w3.org/Graphics/SVG/1.1/DTD/svg11.dtd"><svg width="100%" height="100%" viewBox="0 0 225 150" version="1.1" xmlns="http://www.w3.org/2000/svg" xmlns:xlink="http://www.w3.org/1999/xlink" xml:space="preserve" xmlns:serif="http://www.serif.com/" style="fill-rule:evenodd;clip-rule:evenodd;stroke-linejoin:round;stroke-miterlimit:2;"><path d="M112.506,122.188l-0.012,0c-26.087,0 -47.267,-21.18 -47.267,-47.267c0,-26.087 21.18,-47.267 47.267,-47.267l0.012,0c26.087,0 47.267,21.18 47.267,47.267c0,26.087 -21.18,47.267 -47.267,47.267Zm20.026,-81.895c-5.891,-3.416 -12.732,-5.373 -20.026,-5.373l-0.012,0c-22.077,0 -40,17.924 -40,40.001c-0,14.807 8.063,27.746 20.034,34.661l17.8,-30.83l0.014,-0.103c-5.198,4.038 -12.147,8.723 -13.186,9.323c-1.737,1.003 -3.961,0.407 -4.963,-1.33c-1.003,-1.737 -0.407,-3.96 1.329,-4.963c1.04,-0.6 8.571,-4.275 14.668,-6.758c-6.097,-2.483 -13.628,-6.158 -14.668,-6.758c-1.736,-1.003 -2.332,-3.227 -1.329,-4.963c1.002,-1.737 3.226,-2.333 4.963,-1.33c1.039,0.6 7.988,5.285 13.186,9.323c-0.898,-6.521 -1.481,-14.881 -1.481,-16.081c-0,-2.005 1.628,-3.633 3.633,-3.633c0.091,0 0.182,0.003 0.271,0.01c1.879,0.138 3.362,1.709 3.362,3.623c-0,1.2 -0.583,9.56 -1.481,16.081l0.084,-0.065l17.802,-30.835Zm-22.204,38.459c-0.89,6.506 -1.467,14.784 -1.467,15.978c0,2.005 1.628,3.633 3.633,3.633c0.091,0 0.182,-0.003 0.271,-0.01c1.879,-0.139 3.362,-1.709 3.362,-3.623c0,-1.2 -0.583,-9.56 -1.481,-16.081c5.199,4.038 12.147,8.723 13.187,9.323c1.736,1.003 3.96,0.407 4.963,-1.33c1.002,-1.737 0.406,-3.96 -1.33,-4.963c-1.039,-0.6 -8.571,-4.275 -14.667,-6.758c6.096,-2.483 13.628,-6.158 14.667,-6.758c1.736,-1.003 2.332,-3.227 1.33,-4.963c-1.003,-1.737 -3.227,-2.333 -4.963,-1.33c-1.034,0.597 -7.914,5.235 -13.103,9.258l-4.402,7.624Z" style="fill:#6D6E7B;"/></svg>