<?xml version="1.0" encoding="UTF-8" standalone="no"?><!DOCTYPE svg PUBLIC "-//W3C//DTD SVG 1.1//EN" "http://www.w3.org/Graphics/SVG/1.1/DTD/svg11.dtd"><svg width="100%" height="100%" viewBox="0 0 225 150" version="1.1" xmlns="http://www.w3.org/2000/svg" xmlns:xlink="http://www.w3.org/1999/xlink" xml:space="preserve" xmlns:serif="http://www.serif.com/" style="fill-rule:evenodd;clip-rule:evenodd;stroke-linejoin:round;stroke-miterlimit:2;"><path d="M146.779,44.887l0,60.068c0,6.931 -5.627,12.558 -12.558,12.558l-43.454,-0c-6.931,-0 -12.558,-5.627 -12.558,-12.558l0,-60.068c0,-6.931 5.627,-12.558 12.558,-12.558l43.454,0c6.931,0 12.558,5.627 12.558,12.558Zm-6.75,0c0,-3.205 -2.602,-5.808 -5.808,-5.808l-43.454,0c-3.205,0 -5.808,2.603 -5.808,5.808l0,60.068c0,3.205 2.603,5.808 5.808,5.808l43.454,-0c3.206,-0 5.808,-2.603 5.808,-5.808l0,-60.068Zm-10.534,23.995c-0,1.547 -1.256,2.803 -2.803,2.803l-28.396,-0c-1.547,-0 -2.802,-1.256 -2.802,-2.803c-0,-1.546 1.255,-2.802 2.802,-2.802l28.396,-0c1.547,-0 2.803,1.256 2.803,2.802Zm-0,-13.811c-0,1.547 -1.256,2.803 -2.803,2.803l-28.396,-0c-1.547,-0 -2.802,-1.256 -2.802,-2.803c-0,-1.546 1.255,-2.802 2.802,-2.802l28.396,-0c1.547,-0 2.803,1.256 2.803,2.802Zm-17.001,25.778c0,1.547 -1.256,2.803 -2.802,2.803l-11.396,-0c-1.547,-0 -2.802,-1.256 -2.802,-2.803c-0,-1.547 1.255,-2.803 2.802,-2.803l11.396,0c1.546,0 2.802,1.256 2.802,2.803Z" style="fill:#616270;"/></svg>