<?xml version="1.0" encoding="UTF-8" standalone="no"?><!DOCTYPE svg PUBLIC "-//W3C//DTD SVG 1.1//EN" "http://www.w3.org/Graphics/SVG/1.1/DTD/svg11.dtd"><svg width="100%" height="100%" viewBox="0 0 225 150" version="1.1" xmlns="http://www.w3.org/2000/svg" xmlns:xlink="http://www.w3.org/1999/xlink" xml:space="preserve" xmlns:serif="http://www.serif.com/" style="fill-rule:evenodd;clip-rule:evenodd;stroke-linejoin:round;stroke-miterlimit:2;"><path d="M90.42,104.906l-4.057,6.115c-1.391,2.098 -3.742,3.359 -6.259,3.359c-2.518,-0 -4.869,-1.261 -6.26,-3.359l-21.194,-31.947c-1.67,-2.517 -1.67,-5.789 -0,-8.306l21.194,-31.947c1.391,-2.098 3.742,-3.359 6.26,-3.359c2.517,-0 4.868,1.261 6.259,3.359l4.057,6.115l8.106,-12.219c1.54,-2.322 4.14,-3.717 6.926,-3.717c2.786,-0 5.387,1.395 6.927,3.717l3.732,5.625l7.399,-11.153c1.159,-1.747 3.115,-2.797 5.211,-2.797c2.096,0 4.053,1.05 5.211,2.797l29.373,44.275c1.389,2.095 1.389,4.819 -0,6.914l-29.373,44.275c-1.158,1.747 -3.115,2.797 -5.211,2.797c-2.096,-0 -4.052,-1.05 -5.211,-2.797l-7.399,-11.153l-3.732,5.625c-1.54,2.322 -4.141,3.717 -6.927,3.717c-2.786,0 -5.386,-1.395 -6.926,-3.717l-8.106,-12.219Zm-3.6,-54.544l-5.456,-8.224c-0.281,-0.422 -0.754,-0.676 -1.26,-0.676c-0.507,-0 -0.98,0.254 -1.261,0.676l-21.193,31.947c-0.336,0.507 -0.336,1.165 -0,1.672l21.193,31.947c0.281,0.422 0.754,0.676 1.261,0.676c0.506,-0 0.979,-0.254 1.26,-0.676l5.456,-8.225l-13.244,-19.963c-1.848,-2.785 -1.848,-6.405 -0,-9.19l13.244,-19.964Zm25.691,-6.593l-5.132,-7.735c-0.429,-0.646 -1.152,-1.034 -1.927,-1.034c-0.775,-0 -1.498,0.388 -1.926,1.034l-24.95,37.609c-0.514,0.774 -0.514,1.781 -0,2.556l24.95,37.609c0.428,0.646 1.151,1.034 1.926,1.034c0.775,0 1.498,-0.388 1.927,-1.034l5.132,-7.735l-18.373,-27.695c-1.39,-2.095 -1.39,-4.819 -0,-6.914l18.373,-27.695Z" style="fill:#626370;"/></svg>