<?xml version="1.0" encoding="UTF-8" standalone="no"?><!DOCTYPE svg PUBLIC "-//W3C//DTD SVG 1.1//EN" "http://www.w3.org/Graphics/SVG/1.1/DTD/svg11.dtd"><svg width="100%" height="100%" viewBox="0 0 225 150" version="1.1" xmlns="http://www.w3.org/2000/svg" xmlns:xlink="http://www.w3.org/1999/xlink" xml:space="preserve" xmlns:serif="http://www.serif.com/" style="fill-rule:evenodd;clip-rule:evenodd;stroke-linejoin:round;stroke-miterlimit:2;"><path d="M110.387,83.877c-11.575,6.693 -26.648,5.09 -36.547,-4.809c-11.812,-11.811 -11.812,-30.99 -0,-42.802c11.811,-11.811 30.99,-11.811 42.801,0c9.899,9.899 11.502,24.973 4.809,36.547l6.753,5.083c0.126,0.095 0.245,0.199 0.357,0.31l33.834,33.835c1.318,1.318 1.318,3.454 -0,4.773l-8.007,8.007c-1.318,1.318 -3.455,1.318 -4.773,-0l-33.834,-33.835c-0.112,-0.111 -0.216,-0.23 -0.31,-0.356l-5.083,-6.753Zm-31.197,-42.26c-8.859,8.858 -8.859,23.242 -0,32.101c8.858,8.859 23.243,8.859 32.101,-0c8.859,-8.859 8.859,-23.243 0,-32.101c-8.858,-8.859 -23.243,-8.859 -32.101,-0Zm27.398,13.781l-0,4.539l-9.078,-0l0,9.078l-4.539,-0l0,-9.078l-9.078,-0l0,-4.539l9.078,-0l0,-9.078l4.539,-0l0,9.078l9.078,-0Zm11.319,23.197l-1.739,1.738l4.552,6.048l31.28,31.28l3.234,-3.234l-31.28,-31.28l-6.047,-4.552Z" style="fill:#6D6E7B;"/></svg>