<?xml version="1.0" encoding="UTF-8" standalone="no"?><!DOCTYPE svg PUBLIC "-//W3C//DTD SVG 1.1//EN" "http://www.w3.org/Graphics/SVG/1.1/DTD/svg11.dtd"><svg width="100%" height="100%" viewBox="0 0 225 150" version="1.1" xmlns="http://www.w3.org/2000/svg" xmlns:xlink="http://www.w3.org/1999/xlink" xml:space="preserve" xmlns:serif="http://www.serif.com/" style="fill-rule:evenodd;clip-rule:evenodd;stroke-linejoin:round;stroke-miterlimit:2;"><path d="M53.461,54.602l-26.749,-0c-0.741,-0 -1.343,-0.602 -1.343,-1.343c0,-0.742 0.602,-1.344 1.343,-1.344l26.749,0l-0,-18.346c-0,-1.864 1.511,-3.375 3.375,-3.375l15.685,0c1.864,0 3.375,1.511 3.375,3.375l-0,18.346l8.927,0l0.379,-0.428c0.641,-0.725 1.561,-1.14 2.529,-1.14l18.537,0c1.167,0 2.238,0.602 2.85,1.568l5.421,0c0.598,-0.942 1.652,-1.568 2.851,-1.568l13.879,0c1.504,0 2.827,0.996 3.243,2.442l0.156,0.539c3.901,-2.964 8.775,-4.407 12.571,-4.407c4.419,0 8.429,1.039 11.861,2.994l32.278,0c0.741,0 1.343,0.602 1.343,1.344c0,0.741 -0.602,1.343 -1.343,1.343l-28.55,-0c5.444,4.876 8.7,12.697 8.7,22.695c-0,8.705 -2.485,15.612 -6.61,20.378c-0.569,0.657 -1.17,1.276 -1.801,1.854l28.261,0c0.741,0 1.343,0.602 1.343,1.344c0,0.741 -0.602,1.343 -1.343,1.343l-31.883,0c-3.504,2.07 -7.641,3.172 -12.256,3.172c-3.193,0 -7.152,-1.054 -10.652,-3.172l-0.137,0l0,14.057c0,1.864 -1.511,3.375 -3.375,3.375l-15.685,-0c-1.864,-0 -3.375,-1.511 -3.375,-3.375l-0,-14.057l-3.415,0c-0.028,0.064 -0.058,0.128 -0.09,0.191c-0.577,1.13 -1.738,1.841 -3.007,1.841l-18.537,-0c-1.09,-0 -2.114,-0.527 -2.747,-1.415l-0.44,-0.617l-10.161,0c-0.519,1.196 -1.711,2.032 -3.097,2.032l-15.685,-0c-1.387,-0 -2.578,-0.836 -3.097,-2.032l-27.027,0c-0.741,0 -1.343,-0.602 -1.343,-1.343c0,-0.742 0.602,-1.344 1.343,-1.344l26.749,0l-0,-44.927Zm22.435,-0l-0,7.413l6.552,-7.413l-6.552,-0Zm33.63,-0c-0.141,0.521 -0.407,1.011 -0.791,1.423l-16.64,17.835l18.141,25.032c0.146,0.201 0.267,0.415 0.364,0.637l3.415,0l-0,-44.927l-4.489,-0Zm-25.664,44.927l-6.857,-9.611l-1.109,1.174l-0,8.437l7.966,0Zm-23.651,-2.031l8.935,-0l-0,-7.747c-0,-0.862 0.329,-1.691 0.921,-2.318l4.848,-5.133c0.693,-0.734 1.678,-1.119 2.685,-1.05c1.007,0.069 1.93,0.585 2.516,1.407l10.588,14.841l10.185,-0l-15.891,-21.927c-0.948,-1.308 -0.836,-3.103 0.265,-4.283l13.24,-14.191l-9.251,0l-14.203,16.067c-0.929,1.051 -2.411,1.417 -3.723,0.921c-1.312,-0.497 -2.18,-1.754 -2.18,-3.157l-0,-33.984l-8.935,0l-0,60.554Zm60.554,15.4l8.935,-0l0,-18.68c0,-1.517 1.012,-2.847 2.474,-3.252c1.462,-0.405 3.015,0.215 3.795,1.516c2.492,4.153 7.646,6.156 11.27,6.156c10.625,0 17.539,-8.121 17.539,-21.341c-0,-13.074 -6.901,-21.626 -17.539,-21.626c-3.622,0 -8.78,1.912 -11.27,6.062c-0.691,1.152 -2,1.784 -3.332,1.61c-1.332,-0.174 -2.434,-1.122 -2.805,-2.413l-1.104,-3.833l-7.963,0l-0,55.801Zm21.436,-19.582c-3.584,-0 -6.952,-1.286 -9.445,-4.136c-2.229,-2.55 -3.816,-6.493 -3.816,-12.263c-0,-5.821 1.619,-9.676 3.869,-12.13c2.481,-2.709 5.824,-3.888 9.392,-3.888c6.748,0 13.166,5.847 13.166,16.398c0,10.847 -6.387,16.019 -13.166,16.019Zm-0,-6.75c3.685,-0 6.416,-3.372 6.416,-9.269c0,-5.813 -2.698,-9.648 -6.416,-9.648c-1.661,0 -3.261,0.437 -4.415,1.697c-1.388,1.515 -2.096,3.98 -2.096,7.571c-0,6.7 2.789,9.649 6.511,9.649Zm-107.989,31.05c-0.741,-0 -1.343,-0.602 -1.343,-1.343c0,-0.742 0.602,-1.344 1.343,-1.344l7.484,0c0.741,0 1.343,0.602 1.343,1.344c-0,0.741 -0.602,1.343 -1.343,1.343l-7.484,-0Zm22.45,-0c-0.741,-0 -1.343,-0.602 -1.343,-1.343c-0,-0.742 0.602,-1.344 1.343,-1.344l14.967,0c0.741,0 1.343,0.602 1.343,1.344c0,0.741 -0.602,1.343 -1.343,1.343l-14.967,-0Zm29.933,-0c-0.741,-0 -1.343,-0.602 -1.343,-1.343c-0,-0.742 0.602,-1.344 1.343,-1.344l14.967,0c0.741,0 1.343,0.602 1.343,1.344c-0,0.741 -0.602,1.343 -1.343,1.343l-14.967,-0Zm59.866,-0c-0.741,-0 -1.343,-0.602 -1.343,-1.343c0,-0.742 0.602,-1.344 1.343,-1.344l14.967,0c0.741,0 1.343,0.602 1.343,1.344c0,0.741 -0.602,1.343 -1.343,1.343l-14.967,-0Zm29.934,-0c-0.742,-0 -1.344,-0.602 -1.344,-1.343c0,-0.742 0.602,-1.344 1.344,-1.344l7.483,0c0.741,0 1.343,0.602 1.343,1.344c0,0.741 -0.602,1.343 -1.343,1.343l-7.483,-0Zm-142.183,-82.704c-0.741,0 -1.343,-0.601 -1.343,-1.343c0,-0.741 0.602,-1.343 1.343,-1.343l7.484,-0c0.741,-0 1.343,0.602 1.343,1.343c-0,0.742 -0.602,1.343 -1.343,1.343l-7.484,0Zm52.383,0c-0.741,0 -1.343,-0.601 -1.343,-1.343c-0,-0.741 0.602,-1.343 1.343,-1.343l14.967,-0c0.741,-0 1.343,0.602 1.343,1.343c-0,0.742 -0.602,1.343 -1.343,1.343l-14.967,0Zm29.933,0c-0.741,0 -1.343,-0.601 -1.343,-1.343c0,-0.741 0.602,-1.343 1.343,-1.343l14.967,-0c0.741,-0 1.343,0.602 1.343,1.343c0,0.742 -0.602,1.343 -1.343,1.343l-14.967,0Zm29.933,0c-0.741,0 -1.343,-0.601 -1.343,-1.343c0,-0.741 0.602,-1.343 1.343,-1.343l14.967,-0c0.741,-0 1.343,0.602 1.343,1.343c0,0.742 -0.602,1.343 -1.343,1.343l-14.967,0Zm29.934,0c-0.742,0 -1.344,-0.601 -1.344,-1.343c0,-0.741 0.602,-1.343 1.344,-1.343l7.483,-0c0.741,-0 1.343,0.602 1.343,1.343c0,0.742 -0.602,1.343 -1.343,1.343l-7.483,0Z" style="fill:#616270;"/></svg>