<?xml version="1.0" encoding="UTF-8" standalone="no"?><!DOCTYPE svg PUBLIC "-//W3C//DTD SVG 1.1//EN" "http://www.w3.org/Graphics/SVG/1.1/DTD/svg11.dtd"><svg width="100%" height="100%" viewBox="0 0 225 150" version="1.1" xmlns="http://www.w3.org/2000/svg" xmlns:xlink="http://www.w3.org/1999/xlink" xml:space="preserve" xmlns:serif="http://www.serif.com/" style="fill-rule:evenodd;clip-rule:evenodd;stroke-linejoin:round;stroke-miterlimit:2;"><path d="M109.119,100.073c-13.228,-1.662 -23.474,-12.963 -23.474,-26.638c0,-1.863 1.512,-3.375 3.375,-3.375c1.863,-0 3.375,1.512 3.375,3.375c0,11.093 9.006,20.099 20.099,20.099c11.093,-0 20.099,-9.006 20.099,-20.099c0,-1.863 1.513,-3.375 3.375,-3.375c1.863,-0 3.375,1.512 3.375,3.375c0,13.675 -10.246,24.976 -23.474,26.638l0,8.422l16.464,-0c1.863,-0 3.375,1.512 3.375,3.375c-0,1.862 -1.512,3.375 -3.375,3.375l-39.678,-0c-1.862,-0 -3.375,-1.513 -3.375,-3.375c0,-1.863 1.513,-3.375 3.375,-3.375l16.464,-0l0,-8.422Zm16.705,-52.146l0,25.505c0,7.357 -5.973,13.33 -13.33,13.33c-7.357,0 -13.33,-5.973 -13.33,-13.33l-0,-25.505c-0,-7.357 5.973,-13.33 13.33,-13.33c7.357,0 13.33,5.973 13.33,13.33Zm-6.75,0c0,-3.631 -2.948,-6.58 -6.58,-6.58c-3.632,0 -6.58,2.949 -6.58,6.58l-0,25.505c-0,3.632 2.948,6.58 6.58,6.58c3.632,0 6.58,-2.948 6.58,-6.58l0,-25.505Z" style="fill:#6D6E7B;"/></svg>