<?xml version="1.0" encoding="UTF-8" standalone="no"?><!DOCTYPE svg PUBLIC "-//W3C//DTD SVG 1.1//EN" "http://www.w3.org/Graphics/SVG/1.1/DTD/svg11.dtd">
<svg width="100%" height="100%" viewBox="0 0 4658 5689" version="1.1" xmlns="http://www.w3.org/2000/svg" xmlns:xlink="http://www.w3.org/1999/xlink" xml:space="preserve" xmlns:serif="http://www.serif.com/" style="fill-rule:evenodd;clip-rule:evenodd;stroke-linecap:round;stroke-linejoin:round;">
<link
    xmlns="http://www.w3.org/1999/xhtml"
    rel="stylesheet"
    href="$lib/styles/colors.css"
    type="text/css" />
<style>


	svg {
		background: var(--gray-1);
	}

	path {
		fill: var(--gray-2);
		stroke: var(--gray-3);
		stroke-width: 0.1rem;
	}

	path#NY {
		fill: var(--gray-3);
		stroke: var(--gray-7);
	}

	path#Monroe {
		fill: var(--green-9);
		stroke: var(--text-primary);
		stroke-width: 0.1rem;
	}
</style>

<path id="MB" d="M0.652,2147.19l0,-1743.64l39.299,1.85l73.063,2.609l147.432,2.61l147.432,-1.305l2.61,36.532l-2.61,20.875l9.133,46.97l-5.218,10.437l-1.305,45.665l9.133,6.524l-0,10.437l18.266,15.657l7.828,16.961l20.875,-9.133l22.18,1.305l13.047,-6.524l44.36,3.914l5.219,13.047l1.305,24.79l15.657,43.055l14.351,28.704l5.219,33.922l28.704,66.54l3.914,14.352l-2.61,22.18l-6.523,18.266l-10.438,18.266l33.923,-11.742l5.218,6.523l22.181,-7.828l16.961,-9.133l62.626,-27.399l15.656,0l23.485,3.914l45.665,23.485l10.437,9.133l11.743,3.914l37.836,3.914l31.313,11.742l9.133,-2.609l-112.205,146.127l-113.509,146.128l-169.612,221.8l-11.743,13.047l-129.166,135.69l3.914,473.609l0,117.424l-1.304,2.609l-66.541,1.305l-140.908,-1.305l-148.737,-3.914l-36.689,-1.295Z"/>

<path id="NU" d="M0.652,403.548l0,-402.896l564.094,0l1.002,12.028l9.133,11.743l0,10.438l-14.352,-0l-22.18,11.742l-3.914,7.828l14.352,3.914l-19.571,19.571l-10.437,15.656l-11.743,-6.523l0,14.352l15.657,16.961l-41.751,32.618l-10.438,16.961l11.743,22.18l-15.657,7.828l2.61,6.524l-3.914,18.266l-14.352,37.836l-7.828,7.828l-3.915,24.79l-6.523,9.133l-2.61,16.961l-13.047,13.047l5.219,13.047l-6.523,20.875l-0,26.095l-7.829,16.961l-147.432,1.305l-147.432,-2.61l-73.063,-2.609l-39.299,-1.85Zm1598.42,-402.896l0,1.591l-10.438,31.313l-7.828,2.609l-10.437,-15.656l-20.876,-11.743l-4.508,-8.114l54.087,0Zm957.269,0l-0.918,5.505l-22.18,30.008l-11.742,-6.523l-0,-28.99l34.84,0Zm-649.358,1526.8l-5.219,18.266l-6.523,5.219l-19.571,3.914l-5.219,-6.524l26.095,-23.484l10.437,2.609Zm-176.135,-1393.43l-6.524,14.352l-24.789,13.047l2.609,-13.047l28.704,-14.352Zm-1188.59,-45.664l5.219,9.133l-6.523,6.523l-10.438,-15.656l11.742,-0Zm1129.88,1296.88l28.703,-0l16.962,13.047l22.18,20.875l15.656,30.008l-10.438,3.915l-23.484,-0l-26.094,-10.438l-18.266,-0l-46.97,-10.438l-11.742,-5.219l13.047,-27.399l40.446,-14.351Zm133.08,-44.36l5.219,13.047l-9.133,2.609l-7.828,-7.828l11.742,-7.828Zm-186.573,-1025.5l6.523,9.133l-9.133,10.437l-6.523,-10.437l9.133,-9.133Zm130.471,553.196l-5.219,10.438l-19.571,20.875l-11.742,-3.914l6.523,-15.656l9.133,-2.61l1.305,-9.133l19.571,0Zm32.617,-53.493l-6.523,5.219l3.914,13.047l9.133,-1.305l13.047,27.399l-1.305,20.876l-7.828,5.218l-7.828,39.142l-6.524,16.961l-15.656,-0l-0,-6.524l9.133,-27.399l-10.438,0l-16.961,45.665l-15.657,-5.219l18.266,-45.664l13.047,-19.571l13.047,2.609l2.61,-40.446l-3.914,-28.703l10.437,-1.305Zm52.189,39.141l3.914,24.79l-11.743,13.047l-9.133,-5.219l5.219,-13.047l-2.609,-16.961l3.914,-13.047l9.133,-0l1.305,10.437Z"/>

<path id="ON" d="M1704.76,2519.03l9.132,14.352l16.962,-9.133l9.133,-10.438l18.266,-9.132l3.914,9.132l16.961,9.133l3.914,-14.351l13.047,-9.133l6.524,11.742l16.961,5.219l18.266,13.047l-15.657,33.922l-23.484,0l-16.962,-2.609l-19.57,-10.438l-11.743,0l-27.399,-10.437l-28.703,1.304l-14.352,-6.523l-15.656,-0l-1.305,-6.524l28.703,-9.133l13.048,0Zm-50.884,3.914l5.219,6.524l-10.438,10.438l-11.742,-7.829l5.219,-10.437l11.742,1.304Zm-84.806,-39.141l22.18,1.305l7.828,6.523l-7.828,10.438l-3.914,14.352l-18.266,-18.266l-0,-14.352Zm-186.573,-200.925l-14.352,6.524l-20.876,1.304l6.524,-13.047l13.047,-1.304l15.657,6.523Zm-238.762,-136.994l-3.914,6.523l-16.961,1.305l-11.743,-7.828l11.743,-9.133l19.57,-1.305l1.305,10.438Zm768.473,-443.601l-16.961,-11.743l-10.438,-19.57l2.61,-19.571l-3.914,-10.437l14.351,-15.657l14.352,76.978Zm1.305,3.914l86.111,473.609l7.828,37.837l-3.914,19.57l19.57,23.485l6.524,28.704l18.266,20.875l16.961,13.047l9.133,16.961l10.438,7.828l9.133,15.657l24.789,15.656l7.828,7.829l41.751,3.914l20.875,-3.914l49.579,1.304l22.18,6.524l22.18,13.047l2.61,7.828l18.266,13.047l19.57,3.915l1.305,-13.048l13.047,-3.914l9.133,19.571l6.524,3.914l9.133,18.266l24.789,3.914l10.438,5.219l11.742,-10.438l18.266,-3.914l20.875,14.352l11.743,-2.609l5.219,-10.438l32.617,-20.875l7.828,-6.524l22.181,-9.133l11.742,-9.133l16.961,-2.609l11.742,-6.524l30.009,5.219l-0,40.446l16.961,11.742l-13.047,14.352l-1.305,9.133l-15.656,18.266l-16.962,1.305l-24.789,19.57l-13.047,13.047l-35.227,52.189l-6.524,14.352l-13.047,18.265l-28.703,16.962l-20.876,18.266l-20.875,7.828l-16.961,13.047l-11.743,15.656l-13.047,-13.047l-1.304,20.876l14.351,2.609l10.438,7.828l-19.571,16.962l-13.047,-0l-15.656,-10.438l-14.352,5.219l-14.352,-10.438l-20.875,7.828l-10.438,6.524l-39.141,13.047l-22.18,13.047l-11.742,-0l-49.579,23.485l-24.79,32.617l-10.438,1.305l-11.742,14.352l0,11.742l-13.047,27.399l11.742,11.743l16.962,2.609l23.484,-2.609l14.352,-13.048l13.047,-5.218l3.914,26.094l5.219,14.352l14.352,6.523l-2.609,9.133l-13.048,9.133l-13.047,-2.609l-26.094,5.218l-20.875,9.133l-9.133,-2.609l-15.657,9.133l-37.836,14.352l-19.571,26.094l1.305,5.219l37.837,-2.61l-0,5.219l-28.704,-1.305l-16.961,3.915l-48.274,-6.524l-32.618,5.219l-14.352,5.219l-18.266,15.656l-23.485,28.704l-5.218,16.961l-6.524,6.524l-14.352,2.609l-31.313,24.789l-16.961,24.79l-9.133,-6.524l-10.438,2.61l-11.742,9.133l-10.438,1.304l-24.789,-9.133l-1.305,-26.094l1.305,-9.133l-0,-1.304l1.305,-0l13.047,-7.829l19.57,2.61l16.961,-2.61l19.571,-7.828l-1.305,-23.485l-19.57,1.305l-6.524,-6.523l6.524,-3.915l6.523,-11.742l-1.304,-26.094l2.609,-31.313l27.399,-15.657l13.047,-20.875l13.047,-9.133l13.047,-20.875l1.305,-20.876l-6.524,-24.789l-5.219,-39.141l-6.523,-20.876l6.523,-11.742l2.61,-27.399l9.133,-15.656l9.133,-6.524l1.305,-9.133l7.828,-22.18l-5.219,-24.789l-10.438,-10.438l-1.304,-13.047l-9.133,-0l-3.915,-9.133l-18.265,-16.961l-2.61,-10.438l32.618,-5.219l1.305,15.657l7.828,18.266l15.656,13.047l14.352,-2.61l0,16.962l10.438,-1.305l6.523,7.828l-2.609,19.571l16.961,-16.962l13.047,-2.609l7.828,13.047l16.962,6.524l23.484,2.609l15.657,5.219l7.828,-10.438l-1.305,-24.789l-14.351,-7.828l-1.305,-9.133l15.656,-10.438l10.438,13.047l14.352,0l-14.352,-26.094l-10.438,-1.305l-16.961,-15.656l3.914,-13.047l-15.656,-9.133l7.828,-15.657l-11.742,-10.438l-18.266,10.438l-11.743,-13.047l-1.304,-13.047l-16.961,-10.438l-15.657,-13.047l-6.524,-16.961l-24.789,-11.742l-39.141,3.914l-37.837,-2.61l5.219,-11.742l-49.579,5.219l-33.922,-1.305l-9.133,-5.219l-27.399,9.133l-3.914,-5.219l-28.704,7.829l-28.703,-0l-40.446,-6.524l-7.829,2.609l-23.484,-5.218l-20.876,-0l-7.828,-11.743l3.914,-15.656l-9.133,-1.305l-10.437,7.828l-13.048,0l-6.523,9.133l-11.742,-11.742l2.609,-9.133l10.438,-15.657l-14.352,-18.266l15.656,-3.914l2.61,-9.133l-7.828,-6.523l-24.79,1.305l-11.742,-3.915l2.609,-24.789l11.742,-26.094l-15.656,-16.961l-22.18,-10.438l-13.047,-13.047l-0,-15.657l7.828,-13.047l-3.914,-9.133l7.828,-10.437l-9.133,-7.829l-36.532,6.524l-13.047,6.523l-33.922,0l-11.742,-3.914l-26.095,-24.789l-19.57,-39.141l-6.524,-23.485l-22.18,-27.399l-10.437,6.524l-16.962,-9.133l-10.437,9.133l-20.876,-2.61l-26.094,5.219l-18.266,-10.438l-7.828,2.61l-13.047,-7.829l-28.704,-5.218l-7.828,-5.219l-26.094,1.305l7.828,22.18l10.438,5.218l2.609,14.352l-7.828,15.657l-23.485,9.133l9.133,-28.704l-5.219,-14.352l-7.828,-1.304l-10.438,11.742l0,23.485l-5.218,2.609l-1.305,15.657l-6.524,22.18l-14.351,1.304l2.609,-30.008l-32.618,15.657l-6.523,6.523l2.609,16.961l-10.438,33.923l-10.437,3.914l-14.352,16.961l-22.18,-1.305l-10.438,5.219l-7.828,-2.609l-10.438,-13.047l-10.437,-2.61l-36.532,7.829l-26.094,-1.305l-6.524,-18.266l-9.133,-0l-14.352,9.133l-19.57,16.961l-15.657,5.219l-15.656,-0l-11.743,-7.828l-7.828,-13.047l-20.875,-5.219l-9.133,-15.657l-11.743,-2.609l-14.351,6.523l-7.829,13.047l-15.656,-32.617l-18.266,1.304l5.219,-14.351l-24.79,-6.524l-9.133,-5.219l-28.703,-1.304l-19.571,5.218l-3.914,9.133l-27.399,5.219l-11.742,-18.266l-36.532,-2.609l-7.828,-9.133l-16.961,2.609l-11.743,-3.914l-13.047,-11.742l0,-16.961l-10.438,-39.142l-1.304,-18.266l-15.657,-10.437l-18.266,-1.305l0,-62.626l-3.914,-473.609l129.166,-135.69l11.743,-13.047l169.612,-221.8l113.509,-146.128l112.205,-146.127l20.876,14.352l7.828,9.133l13.047,6.523l18.266,15.657l30.008,13.047l36.532,52.188l13.047,11.743l15.657,6.523l33.922,6.524l6.524,-1.305l54.797,23.485l35.227,6.523l22.181,9.133l23.484,23.485l27.399,6.524l3.914,9.133l15.657,-0l31.313,3.914l33.922,-13.047l13.047,1.304l13.047,-9.133l14.352,5.219l24.79,2.61l24.789,-0l16.961,-5.219l10.438,1.304l11.742,10.438l11.743,-5.219l20.875,1.305l18.266,13.047l5.219,23.485l6.523,7.828l-3.914,41.751l-5.219,31.313l2.61,24.789l6.523,11.743l14.352,10.437l16.961,37.837l-3.914,33.922l10.438,27.399l6.523,22.18l-9.133,10.438l-2.609,18.266l2.609,22.18l19.571,9.133l13.047,11.742l9.133,18.266l11.742,5.219l11.743,14.352l15.656,9.133l2.61,22.18l-14.352,14.351l22.18,-3.914l14.352,15.657l24.789,9.133l16.961,3.914l7.829,13.047l15.656,6.524l20.876,18.265l11.742,26.095l9.133,7.828l3.914,18.266l-13.047,9.133l-11.742,19.57l5.218,5.219l11.743,-22.18l13.047,-10.438l27.399,2.61l39.141,19.571l5.219,9.132l22.18,15.657Z"/>

<path id="QC" d="M2827.24,0.652l-1.737,2.896l10.438,18.265l-6.524,7.829l3.914,15.656l23.485,11.743l15.657,-19.571l7.828,5.219l-7.828,11.742l3.914,23.485l14.351,26.094l11.743,2.609l7.828,10.438l-6.523,3.914l-22.181,0l-6.523,-3.914l-7.828,15.657l7.828,10.437l7.828,-7.828l13.047,5.219l20.876,-7.828l9.133,14.351l13.047,1.305l7.828,-15.656l10.438,-5.219l6.523,-10.438l11.742,1.305l14.352,10.438l-2.609,6.523l-36.532,20.875l-1.305,15.657l9.133,7.828l9.133,-10.438l10.438,10.438l-10.438,13.047l-1.304,11.743l-7.829,7.828l1.305,20.875l-10.438,9.133l5.219,18.266l15.657,-2.609l5.218,10.437l18.266,22.18l14.352,-2.609l6.524,9.133l20.875,1.305l5.219,3.914l-6.524,15.656l5.219,15.657l9.133,9.133l-6.523,13.047l13.047,11.742l2.609,20.875l-5.219,6.524l3.914,22.18l6.524,5.219l-7.828,11.742l-1.305,26.094l22.18,16.962l3.914,9.133l-7.828,20.875l7.828,15.656l13.047,-2.609l1.305,27.399l13.047,-3.914l16.961,-0l13.047,3.914l-18.266,20.875l14.352,14.352l7.828,3.914l0,16.961l9.133,2.61l3.915,28.703l31.313,-5.218l-10.438,13.047l-5.219,15.656l11.742,2.61l3.915,24.789l7.828,13.047l1.304,11.742l-19.57,1.305l5.219,16.961l-3.914,9.133l22.18,14.352l-11.743,13.047l-20.875,1.305l-9.133,-9.133l-28.704,-3.914l-6.523,14.352l-16.961,3.914l-3.915,-11.743l-20.875,-11.742l-15.656,1.305l-3.914,19.57l-20.876,13.047l6.524,9.133l-20.876,10.438l-14.351,-10.438l-7.829,-10.437l-18.266,2.609l-20.875,-6.523l-41.751,-28.704l-7.828,9.133l0,18.266l14.352,15.656l-2.609,9.133l16.961,15.657l-7.828,14.352l-20.876,-3.914l-10.437,-10.438l-30.009,-10.438l-1.304,-9.133l-14.352,5.219l5.219,9.133l20.875,19.571l20.875,10.437l0,19.571l-7.828,10.438l3.914,13.047l-24.789,-10.438l3.914,16.961l-18.266,15.657l20.875,32.617l-6.523,7.829l-0,19.57l22.18,11.743l11.742,10.437l-1.305,11.743l18.266,6.523l14.352,15.657l28.704,-0l16.961,10.437l-7.828,13.048l7.828,6.523l6.523,28.704l-18.266,-1.305l-11.742,3.914l-5.219,9.133l18.266,33.922l28.704,5.219l20.875,11.743l7.828,-9.133l-3.914,-9.133l7.828,-7.829l-3.914,-22.18l6.524,-2.609l6.523,-18.266l7.829,3.914l14.351,20.876l-10.437,3.914l11.742,13.047l0,24.789l16.961,32.618l-10.437,6.523l19.57,26.095l9.133,-5.219l-10.437,-18.266l26.094,10.438l3.914,11.742l10.438,1.305l11.742,-11.743l10.438,0l6.523,7.829l20.876,-7.829l13.047,7.829l-0,9.132l11.742,1.305l13.047,10.438l14.352,-2.61l9.133,2.61l6.523,-10.438l18.266,1.305l20.876,14.352l13.047,-16.962l1.304,-13.047l-9.133,-9.133l-10.437,-20.875l11.742,-6.523l-9.133,-19.571l7.828,-5.219l-10.437,-11.742l-3.914,-11.743l2.609,-14.351l-15.656,-26.095l-2.61,-15.656l2.61,-7.828l40.446,-26.095l22.18,6.524l5.218,5.219l-36.531,18.266l-10.438,11.742l-5.219,19.571l15.657,13.047l19.57,-3.914l10.438,14.352l14.352,26.094l-3.914,7.828l139.603,-52.188l153.956,-62.626l101.767,-43.056l109.596,-46.969l83.501,-37.837l37.837,82.197l-7.829,3.914l-10.437,-10.438l-15.657,10.438l-3.914,6.523l-13.047,10.438l-9.133,-1.305l-11.742,27.399l-19.571,18.266l-22.18,2.61l-11.742,23.484l1.304,16.962l-15.656,18.266l10.437,37.836l-11.742,2.609l-3.914,13.048l-14.352,18.265l-3.914,32.618l-18.266,13.047l-2.609,13.047l6.523,7.829l-15.656,16.961l-10.438,-1.305l-10.438,10.438l-14.351,3.914l-6.524,9.133l-16.961,6.523l-13.047,0l-5.219,11.743l-10.438,-0l-10.437,10.437l-13.047,3.915l-32.618,28.703l-18.266,-11.742l-35.227,9.133l-13.047,-2.61l-9.133,7.829l-39.142,10.437l-30.008,11.743l-3.914,10.437l-16.961,9.133l-9.133,-3.914l-7.828,5.219l-14.352,-3.914l-24.79,9.133l-11.742,10.437l-10.438,3.915l-23.484,-0l-11.743,10.437l-23.485,10.438l-37.836,5.219l-41.751,24.789l-19.57,1.305l-6.524,13.047l-10.438,7.828l-18.266,5.219l-7.828,-6.523l-10.437,10.437l1.304,9.133l-9.133,6.524l-2.609,15.656l-16.961,15.657l-1.305,26.094l-7.828,2.609l-0,14.352l3.914,9.133l-2.61,11.742l6.524,22.18l-7.828,22.181l-32.618,14.351l-6.524,7.829l-13.047,1.304l-15.656,9.133l1.305,23.485l-13.047,7.828l-6.524,-3.914l-19.571,26.094l3.914,14.352l-13.047,5.219l-14.351,24.789l-6.524,6.524l0,24.789l-7.828,3.914l-0,20.876l-7.828,30.008l-15.657,24.79l-13.047,5.218l-23.485,-11.742l-15.656,5.219l-26.094,-9.133l-6.524,3.914l-33.922,-1.305l3.914,11.743l26.094,-7.829l20.875,1.305l14.352,5.219l13.047,-3.914l11.742,1.305l7.829,7.828l15.656,1.305l0,20.875l-3.914,36.532l-19.571,33.922l1.305,15.657l-23.485,16.961l-2.609,30.008l-6.524,22.18l-19.57,20.875l-16.961,31.313l-1.305,9.133l-10.438,13.048l-10.437,3.914l-20.876,14.351l-19.57,2.61l-14.352,19.57l-15.657,10.438l0,13.047l-18.266,15.657l-10.437,19.57l-23.485,11.743l-13.047,11.742l1.305,15.657l-13.047,9.133l-5.219,32.617l-15.657,27.399l-18.266,7.828l-7.828,6.524l-10.438,24.789l-14.351,15.657l15.656,13.047l-18.266,9.133l-3.914,9.133l-13.047,11.742l-16.961,-11.742l-0,-40.446l-30.009,-5.219l-11.742,6.524l-16.961,2.609l-11.742,9.133l-22.181,9.133l-7.828,6.524l-32.617,20.875l-5.219,10.438l-11.743,2.609l-20.875,-14.352l-18.266,3.914l-11.742,10.438l-10.438,-5.219l-24.789,-3.914l-9.133,-18.266l-6.524,-3.914l-9.133,-19.571l-13.047,3.914l-1.305,13.048l-19.57,-3.915l-18.266,-13.047l-2.61,-7.828l-22.18,-13.047l-22.18,-6.524l-49.579,-1.304l-20.875,3.914l-41.751,-3.914l-7.828,-7.829l-24.789,-15.656l-9.133,-15.657l-10.438,-7.828l-9.133,-16.961l-16.961,-13.047l-18.266,-20.875l-6.524,-28.704l-19.57,-23.485l3.914,-19.57l-7.828,-37.837l-86.111,-473.609l-1.305,-3.914l-14.352,-76.978l-5.218,-13.047l7.828,-5.219l9.133,-14.352l10.437,2.61l1.305,16.961l11.742,-5.219l14.352,11.743l13.047,5.218l6.524,-13.047l-3.914,-20.875l-14.352,-5.219l-11.742,-18.266l15.656,-10.437l-7.828,-15.657l11.742,-6.524l1.305,-13.047l10.438,-10.437l2.609,-14.352l-5.219,-13.047l3.914,-11.743l-6.523,-19.57l-11.743,-5.219l-18.266,-16.961l-1.304,-19.571l-3.914,-13.047l-11.743,-5.219l-13.047,-22.18l3.914,-20.875l-9.133,-27.399l-6.523,-10.438l-13.047,-6.523l15.656,-10.438l-14.352,-7.828l1.305,-11.743l-5.219,-9.132l1.305,-14.352l-16.961,-39.142l-10.438,-6.523l-13.047,-2.609l0,-9.133l-13.047,-6.524l-13.047,-33.922l-1.305,-6.524l-15.656,-15.656l15.656,-13.048l43.056,-23.484l6.523,-10.438l39.141,-27.399l18.266,-20.875l28.704,-27.399l9.133,-19.571l28.703,-40.446l7.829,-15.656l-5.219,-3.914l7.828,-13.047l24.79,-53.493l1.304,-36.532l-1.304,-22.18l-6.524,-24.79l-5.219,-30.008l-13.047,-37.837l0,-9.132l-10.438,-27.399l-30.008,-49.579l-2.609,-10.438l-22.18,-26.094l-9.133,-14.352l-20.876,-15.656l-3.914,-1.305l-16.961,-15.657l-13.047,-6.523l-39.141,-11.743l-0,-6.523l-23.485,-10.438l-5.219,-7.828l-20.875,-1.305l-2.61,-9.133l5.219,-10.437l-14.352,-33.923l20.876,-6.523l-1.305,-15.657l10.438,-10.437l-1.305,-16.962l20.875,-18.266l0,-19.57l-11.742,-10.438l10.438,-10.438l-1.305,-14.351l-7.828,-7.829l27.399,-5.218l-0,-19.571l9.132,-2.609l-9.132,-14.352l2.609,-22.18l-6.524,-3.914l-16.961,3.914l-5.219,-9.133l6.524,-18.266l-9.133,-6.524l-7.828,-14.352l-10.438,-7.828l9.133,-15.656l-23.485,-18.266l13.047,-22.18l-20.875,-1.305l-5.219,-6.523l-20.875,11.742l-0,-13.047l20.875,-41.751l0,-23.485l-10.438,-36.531l13.048,-3.915l-11.757,-21.161l658.498,0l5.613,12.028l-9.133,7.829l9.133,9.133l5.219,19.57l16.961,14.352l5.219,19.571l-7.829,10.437l-7.828,-1.304l-2.609,11.742l-32.618,6.524l13.047,6.523l10.438,0l20.875,-10.438l6.524,10.438l11.742,0l2.609,28.704l13.048,1.304l-1.305,13.048l-7.828,9.132l-1.305,13.048l7.828,2.609l10.438,22.18l11.742,-11.742l16.961,-0l6.524,15.656l-20.875,13.047l19.57,43.056l-5.219,16.961l-9.133,2.609l-6.523,-7.828l-22.18,15.656l-6.524,11.743l19.571,2.609l13.047,13.047l9.133,-19.57l1.305,-10.438l7.828,-7.828l5.219,-14.352l9.133,-7.828l22.18,-6.524l7.828,1.305l6.524,-9.133l13.047,-0l27.398,10.438l9.133,24.789l7.829,6.524l11.742,16.961l1.305,32.618l5.219,1.304l-3.915,-46.969l20.876,-2.61l1.305,14.352l19.57,-9.133l0,15.657l10.438,10.437l13.047,-10.437l19.571,-22.18l7.828,-3.914l3.914,-19.571l26.094,-9.133l-5.219,-14.352l0,-19.57l6.524,-3.915l-3.914,-18.266l2.609,-3.914l28.704,11.743l-2.61,-9.133l2.61,-24.79l9.133,-6.523l1.304,-11.743l9.133,-14.351l-10.437,-11.743l-7.829,-15.656l15.657,-5.219l-9.133,-14.352l10.438,-3.914l1.304,-9.133l-7.828,-16.961l-20.875,-27.399l6.523,-15.657l16.961,-20.875l-0.081,-0.286l30.522,0Zm-138.731,2389.21l-5.219,14.352l-19.571,-0l0,-7.828l9.133,-10.438l2.61,-10.438l13.047,-14.351l-0,28.703Zm-9.133,-24.789l-11.743,24.789l-14.351,1.305l15.656,-23.485l10.438,-2.609Zm212.667,-241.371l-6.523,-5.219l14.351,-23.485l5.219,11.742l-13.047,16.962Zm524.493,-669.316l19.571,1.305l57.407,-9.133l43.055,-2.609l9.133,3.914l37.837,1.304l20.875,10.438l13.047,-1.305l7.828,6.524l33.923,-3.914l32.617,20.875l-10.437,16.961l-6.524,1.305l-33.922,15.657l-28.704,-1.305l-16.961,5.219l-43.055,2.609l-22.18,-5.219l-32.618,0l-11.743,-15.656l-16.961,-9.133l-18.266,-3.914l-54.797,-2.61l-10.438,-6.523l2.609,-7.829l28.704,-16.961Zm-160.479,375.756l-7.828,6.524l1.304,11.742l-11.742,-1.305l-11.742,10.438l-11.743,2.61l0,7.828l-30.008,-5.219l-2.61,-9.133l-49.579,15.657l3.915,10.437l-26.095,7.828l15.657,54.798l-10.438,23.485l-18.266,16.961l-26.094,19.571l-5.219,-18.266l-18.266,-1.305l-3.914,3.914l-41.75,130.471l5.218,43.055l-7.828,13.048l-3.914,24.789l6.524,9.133l-3.914,11.742l2.609,10.438l9.133,10.438l-10.438,23.484l3.914,7.829l-15.656,18.266l-6.524,14.351l1.305,15.657l-9.133,14.352l3.914,13.047l-13.047,-0l-13.047,7.828l-3.914,9.133l-16.961,-1.305l-7.829,10.438l-2.609,36.532l-82.197,23.485l-109.595,28.703l-142.213,36.532l22.18,-16.961l5.219,-13.047l23.484,-19.571l10.438,-2.609l11.742,-19.571l18.266,-19.571l14.352,0l3.914,-9.133l-5.219,-10.437l3.914,-11.743l-1.304,-22.18l13.047,-19.57l3.914,-33.923l9.133,-5.219l9.133,-13.047l19.571,-10.437l2.609,-11.743l14.352,-20.875l19.57,-15.657l5.219,-16.961l15.657,-11.742l13.047,-19.571l14.352,2.61l37.836,-28.704l10.438,-18.266l18.266,-7.828l5.219,-9.133l32.617,-26.094l9.133,-19.571l11.743,-35.227l9.133,-11.742l-0,-15.657l15.656,-28.703l15.657,-40.446l-1.305,-6.524l5.219,-18.266l10.437,-9.133l16.962,-37.836l18.265,-28.704l7.829,-2.609l15.656,-19.571l2.61,-10.438l9.133,-7.828l10.437,-16.961l20.876,-15.657l32.617,-36.531l11.743,-5.219l24.789,-23.485l40.446,-39.141l33.923,-24.79l31.313,-14.351l27.398,-15.657l60.017,-14.352l37.837,2.61l27.398,9.133l22.18,10.437l-3.914,11.743l-24.789,1.304l32.618,13.047l15.656,10.438l-7.828,5.219l-0,9.133l10.437,2.609l-7.828,19.571l-18.266,11.742l-11.742,14.352l-1.305,19.571l-11.742,9.133l-5.219,10.437l-22.18,26.095l-14.352,6.523l-9.133,-5.219l-30.008,1.305l-20.875,-6.524l-9.133,19.571l-16.962,2.609l-23.484,9.133l-1.305,7.829l-26.094,19.57Zm-564.939,-1518.68l-9.133,3.914l-5.219,-16.961l6.524,-3.915l7.828,16.962Zm-176.136,-90.025l13.048,5.219l-7.829,22.18l-16.961,-22.18l11.742,-5.219Z"/>

<path id="NB" d="M3417.84,2292.01l11.742,16.961l-11.742,6.524l-6.524,-3.914l1.305,-16.962l5.219,-2.609Zm71.759,-523.188l-2.61,18.266l-13.047,-3.914l1.305,-9.133l14.352,-5.219Zm144.822,254.418l-10.437,7.828l-5.219,22.18l-9.133,-3.914l-2.61,15.657l-18.266,1.304l-5.218,14.352l-2.61,20.876l-13.047,3.914l-6.523,14.352l-27.399,26.094l-16.962,26.094l-31.313,30.008l-16.961,-6.523l-7.828,3.914l-1.305,16.961l-20.875,22.18l-9.133,-7.828l-22.18,22.18l-18.266,-0l-7.828,-11.743l-10.438,18.266l-11.742,-9.133l-9.133,-1.304l-9.133,9.133l-18.266,-13.047l-0,-16.962l-11.742,-13.047l5.218,-7.828l-5.218,-10.438l-16.962,2.61l-27.399,-13.047l0,-10.438l-6.523,-19.571l-52.188,-155.26l-23.485,-19.571l-30.008,-13.047l-11.743,-1.304l-5.219,13.047l-15.656,5.219l-7.828,10.437l-10.438,5.219l-13.047,11.742l-19.571,-10.437l26.094,-19.571l18.266,-16.961l10.438,-23.485l-15.657,-54.798l26.095,-7.828l-3.915,-10.437l49.579,-15.657l2.61,9.133l30.008,5.219l0,-7.828l11.743,-2.61l11.742,-10.438l11.742,1.305l-1.304,-11.742l7.828,-6.524l11.742,-2.609l30.008,-24.79l14.352,6.524l32.618,2.609l15.656,-2.609l10.438,5.219l11.743,16.961l7.828,5.219l14.352,-6.524l7.828,-15.656l11.742,-14.352l16.961,-10.438l5.219,7.829l15.657,-9.133l18.266,7.828l-5.219,7.828l-6.524,23.485l6.524,9.133l-0,31.313l-6.524,5.219l-3.914,14.351l-15.656,22.18l49.579,-16.961l7.828,14.352l-5.219,18.266l10.438,13.047l19.57,9.133l5.219,15.657l18.266,19.57l2.609,11.743l16.962,10.437l26.094,-9.133l13.047,6.524l11.742,-7.828l23.485,-1.305l-5.219,15.656l-15.656,5.219l6.523,9.133Z"/>

<path id="NS" d="M3965.82,1963.22l2.61,11.742l-11.743,3.914l-6.523,-5.219l15.656,-10.437Zm-347.052,90.024l5.219,-22.18l10.437,-7.828l14.352,-3.914l14.352,10.438l15.656,-0l6.524,-6.524l15.656,-5.219l1.305,7.829l30.008,2.609l10.438,-10.438l33.922,-10.437l22.18,5.218l11.743,5.219l6.523,-13.047l9.133,-7.828l23.485,-39.141l13.047,24.789l13.047,3.914l19.571,-1.304l1.305,-10.438l10.437,-5.219l22.18,13.047l10.438,2.61l-0,9.133l-10.438,9.132l-1.304,11.743l30.008,-13.047l19.571,-1.305l-5.219,16.961l-26.094,9.133l-2.61,11.743l-16.961,10.437l-3.914,10.438l-16.961,5.219l-3.915,13.047l-13.047,5.219l0,6.523l-31.313,24.79l-2.609,10.437l-10.438,2.61l-7.828,13.047l-14.352,7.828l0,11.742l-9.133,0l-7.828,10.438l-20.875,9.133l-2.61,7.828l-14.352,3.914l1.305,9.133l-18.266,-3.914l14.352,18.266l-1.305,6.524l-15.656,9.133l-11.743,-5.219l-13.047,5.219l-6.523,-14.352l-13.047,1.305l-2.61,14.351l-9.133,6.524l-9.133,15.656l7.829,18.266l-9.133,44.36l-7.829,5.219l1.305,10.438l-13.047,11.742l5.219,14.352l-6.524,3.914l-9.133,23.485l-7.828,0l-13.047,14.352l-9.133,-1.305l3.914,16.961l-9.133,13.047l-19.57,11.743l-15.657,-6.524l-3.914,-14.352l-22.18,-16.961l-1.305,13.047l-16.961,5.219l-11.742,-19.57l-3.914,-16.962l-11.743,-11.742l1.305,-20.875l-2.609,-16.962l3.914,-16.961l13.047,-23.485l-11.743,-1.304l11.743,-20.876l43.055,-57.407l2.61,-7.828l24.789,-31.313l13.047,-13.047l18.266,-13.047l11.742,-19.571l5.219,18.266l18.266,7.828l5.219,-19.57l26.094,-19.571l9.133,-10.438l24.79,-9.133l-16.962,-5.218l-33.922,11.742l-14.352,2.609l-23.485,10.438l-6.523,7.828l-20.876,0l-9.132,7.829l-1.305,10.437l-23.485,3.914l3.914,-22.18l14.352,-18.266l14.352,-28.703l1.304,-14.352l7.829,-10.438Zm306.606,-309.215l6.524,13.047l20.875,-0l10.438,35.227l-1.305,41.75l13.047,7.829l-9.133,30.008l-6.523,9.133l-2.61,26.094l-13.047,9.133l3.914,14.352l-10.437,10.437l10.437,9.133l6.524,-11.742l23.485,-3.914l-2.61,-11.742l18.266,-37.837l-24.789,24.789l-9.133,-6.523l11.742,-16.961l-5.219,-10.438l6.524,-24.789l7.828,-15.657l22.18,3.914l7.828,-5.219l23.485,1.305l7.828,9.133l-2.609,10.438l10.437,2.609l1.305,10.438l-7.828,13.047l-14.352,7.828l9.133,7.828l-9.133,10.438l-1.305,9.133l-11.742,15.657l-28.704,23.484l-3.914,-2.609l-26.094,9.133l-9.133,11.742l-10.437,-2.609l-10.438,9.133l-19.571,-15.657l-14.352,-23.485l-13.047,-19.57l1.305,-18.266l11.742,-20.875l2.61,-24.79l3.914,-13.047l2.609,-57.407l6.524,-10.438l5.219,-33.922l11.742,1.305Z"/>

<path id="NL" d="M2899.13,0.652l5.957,10.724l22.18,9.133l1.305,23.484l23.485,-3.914l19.57,15.657l0,16.961l23.485,1.305l1.305,9.133l15.656,13.047l16.962,6.523l15.656,20.876l-2.609,13.047l-14.352,20.875l18.266,6.524l13.047,-16.962l16.961,-6.523l-1.305,15.656l5.219,5.219l7.828,30.009l-31.313,16.961l11.743,5.219l26.094,-22.18l11.742,7.828l18.266,3.914l-3.914,7.828l15.657,3.914l5.218,-9.133l10.438,9.133l-2.609,13.047l14.351,2.61l15.657,13.047l2.609,7.828l-10.437,7.828l-0,7.829l-15.657,11.742l-1.304,16.961l26.094,-15.656l22.18,5.219l-0,18.265l7.828,14.352l7.828,0l19.571,-9.133l14.352,1.305l11.742,18.266l-13.047,6.523l-5.219,20.876l2.61,6.523l-10.438,10.438l13.047,5.219l-9.133,19.57l11.742,7.829l6.524,11.742l-19.571,2.609l19.571,15.657l22.18,6.524l-7.828,7.828l-9.133,-2.61l-20.876,7.829l16.962,7.828l2.609,-5.219l30.008,-5.219l13.047,-10.437l9.133,18.265l-5.218,5.219l13.047,14.352l24.789,-2.609l5.219,10.437l9.133,-6.523l14.352,-3.914l6.523,10.437l15.657,2.61l5.219,-15.657l6.523,2.61l9.133,13.047l-7.828,6.523l16.961,7.829l5.219,7.828l-1.305,15.656l6.524,3.914l1.304,18.266l5.219,19.571l9.133,-18.266l28.704,-11.742l5.219,-16.962l11.742,3.915l-3.914,23.484l35.227,-14.351l9.133,3.914l1.305,-20.876l24.789,0l7.828,9.133l-1.304,10.438l13.047,3.914l6.523,9.133l22.18,3.914l26.094,-7.828l14.352,-6.524l9.133,6.524l24.79,-11.742l22.18,9.133l16.961,-10.438l11.742,3.914l2.61,14.352l-22.18,13.047l15.656,3.914l-9.133,11.742l-19.57,7.829l-22.18,14.351l1.304,18.266l-16.961,10.438l-16.961,22.18l-13.047,5.219l-37.837,33.922l10.438,0l44.36,-36.532l9.133,-16.961l10.438,-6.523l-6.524,28.703l-7.828,7.829l-14.352,2.609l-3.914,15.656l-18.266,15.657l-20.875,27.399l-23.485,5.219l-6.524,11.742l-15.656,13.047l13.047,30.008l10.438,7.829l-20.876,24.789l23.485,-2.609l5.219,-5.219l6.523,-27.399l26.095,-20.875l6.523,-18.266l22.18,-15.657l3.914,-6.523l-9.133,-10.438l9.133,-19.571l0,-9.133l23.485,-22.18l22.18,-18.266l-20.875,-3.914l-0,-10.437l9.133,-10.438l18.266,-9.133l44.36,-7.828l3.914,-6.524l13.047,3.914l14.352,16.962l11.742,6.523l2.609,9.133l15.657,7.828l-1.305,9.133l-19.57,24.79l15.656,5.219l10.438,10.437l7.828,-13.047l-3.914,-10.437l5.219,-20.876l28.703,-15.656l5.219,11.742l19.571,-2.609l36.532,-10.438l-1.305,6.524l10.438,14.351l19.57,1.305l6.524,5.219l7.828,19.57l10.438,3.915l-7.829,13.047l-1.304,13.047l16.961,7.828l7.828,13.047l-11.742,7.828l-5.219,11.743l19.571,13.047l-7.829,14.352l10.438,5.218l23.485,-7.828l11.742,3.914l-6.523,26.094l15.656,7.829l9.133,14.352l-5.219,16.961l-5.219,5.219l1.305,14.351l-11.742,15.657l-3.914,13.047l-10.438,7.828l-13.047,27.399l-6.524,3.914l1.305,10.438l-5.219,19.57l-10.437,6.524l2.609,7.828l-11.742,6.524l-37.837,-82.197l-83.501,37.837l-109.596,46.969l-101.767,43.056l-153.956,62.626l-139.603,52.188l3.914,-7.828l-14.352,-26.094l-10.438,-14.352l-19.57,3.914l-15.657,-13.047l5.219,-19.571l10.438,-11.742l36.531,-18.266l-5.218,-5.219l-22.18,-6.524l-40.446,26.095l-2.61,7.828l2.61,15.656l15.656,26.095l-2.609,14.351l3.914,11.743l10.437,11.742l-7.828,5.219l9.133,19.571l-11.742,6.523l10.437,20.875l9.133,9.133l-1.304,13.047l-13.047,16.962l-20.876,-14.352l-18.266,-1.305l-6.523,10.438l-9.133,-2.61l-14.352,2.61l-13.047,-10.438l-11.742,-1.305l-0,-9.132l-13.047,-7.829l-20.876,7.829l-6.523,-7.829l-10.438,0l-11.742,11.743l-10.438,-1.305l-3.914,-11.742l-26.094,-10.438l10.437,18.266l-9.133,5.219l-19.57,-26.095l10.437,-6.523l-16.961,-32.618l0,-24.789l-11.742,-13.047l10.437,-3.914l-14.351,-20.876l-7.829,-3.914l-6.523,18.266l-6.524,2.609l3.914,22.18l-7.828,7.829l3.914,9.133l-7.828,9.133l-20.875,-11.743l-28.704,-5.219l-18.266,-33.922l5.219,-9.133l11.742,-3.914l18.266,1.305l-6.523,-28.704l-7.828,-6.523l7.828,-13.048l-16.961,-10.437l-28.704,-0l-14.352,-15.657l-18.266,-6.523l1.305,-11.743l-11.742,-10.437l-22.18,-11.743l-0,-19.57l6.523,-7.829l-20.875,-32.617l18.266,-15.657l-3.914,-16.961l24.789,10.438l-3.914,-13.047l7.828,-10.438l0,-19.571l-20.875,-10.437l-20.875,-19.571l-5.219,-9.133l14.352,-5.219l1.304,9.133l30.009,10.438l10.437,10.438l20.876,3.914l7.828,-14.352l-16.961,-15.657l2.609,-9.133l-14.352,-15.656l0,-18.266l7.828,-9.133l41.751,28.704l20.875,6.523l18.266,-2.609l7.829,10.437l14.351,10.438l20.876,-10.438l-6.524,-9.133l20.876,-13.047l3.914,-19.57l15.656,-1.305l20.875,11.742l3.915,11.743l16.961,-3.914l6.523,-14.352l28.704,3.914l9.133,9.133l20.875,-1.305l11.743,-13.047l-22.18,-14.352l3.914,-9.133l-5.219,-16.961l19.57,-1.305l-1.304,-11.742l-7.828,-13.047l-3.915,-24.789l-11.742,-2.61l5.219,-15.656l10.438,-13.047l-31.313,5.218l-3.915,-28.703l-9.133,-2.61l0,-16.961l-7.828,-3.914l-14.352,-14.352l18.266,-20.875l-13.047,-3.914l-16.961,-0l-13.047,3.914l-1.305,-27.399l-13.047,2.609l-7.828,-15.656l7.828,-20.875l-3.914,-9.133l-22.18,-16.962l1.305,-26.094l7.828,-11.742l-6.524,-5.219l-3.914,-22.18l5.219,-6.524l-2.609,-20.875l-13.047,-11.742l6.523,-13.047l-9.133,-9.133l-5.219,-15.657l6.524,-15.656l-5.219,-3.914l-20.875,-1.305l-6.524,-9.133l-14.352,2.609l-18.266,-22.18l-5.218,-10.437l-15.657,2.609l-5.219,-18.266l10.438,-9.133l-1.305,-20.875l7.829,-7.828l1.304,-11.743l10.438,-13.047l-10.438,-10.438l-9.133,10.438l-9.133,-7.828l1.305,-15.657l36.532,-20.875l2.609,-6.523l-14.352,-10.438l-11.742,-1.305l-6.523,10.438l-10.438,5.219l-7.828,15.656l-13.047,-1.305l-9.133,-14.351l-20.876,7.828l-13.047,-5.219l-7.828,7.828l-7.828,-10.437l7.828,-15.657l6.523,3.914l22.181,0l6.523,-3.914l-7.828,-10.438l-11.743,-2.609l-14.351,-26.094l-3.914,-23.485l7.828,-11.742l-7.828,-5.219l-15.657,19.571l-23.485,-11.743l-3.914,-15.656l6.524,-7.829l-10.438,-18.265l1.737,-2.896l49.63,0l8.65,5.505l11.009,-5.505l2.604,0Zm-11.586,0l-0.723,1.591l-4.771,-1.591l5.494,0Zm1588.41,1294.56l33.923,-11.743l-0,10.438l-30.009,11.742l-3.914,-10.437Zm-1268.18,-1030.72l3.914,13.047l-14.352,3.914l-1.305,-9.133l11.743,-7.828Zm1141.62,824.576l10.438,6.523l-5.219,11.743l-14.352,11.742l-6.523,-10.437l7.828,-18.266l7.828,-1.305Zm-1089.43,-750.207l10.438,9.133l1.304,13.047l6.524,13.047l-2.61,11.742l-22.18,-11.742l-5.218,-22.18l11.742,-13.047Zm675.839,300.083l13.047,-2.61l2.609,13.047l-19.57,1.305l3.914,-11.742Zm-264.856,-118.729l6.524,13.047l-2.61,6.524l-11.742,3.914l-11.743,-10.438l19.571,-13.047Zm391.413,383.584l7.828,7.829l-0,9.133l18.266,-9.133l-7.829,-5.219l15.657,-15.657l10.438,-1.304l5.218,31.313l-6.523,2.609l1.305,14.352l-19.571,-0l-14.352,7.828l3.914,20.875l14.352,-9.133l14.352,1.305l5.219,16.961l-1.305,26.094l-5.219,36.532l1.305,13.047l-3.914,14.352l-0,14.352l-5.219,22.18l2.609,28.704l-7.828,32.617l6.524,10.438l2.609,23.485l-5.219,7.828l19.571,5.219l7.828,-39.141l5.219,-1.305l-0,-26.094l7.828,-23.485l11.743,5.219l41.75,7.828l10.438,-11.742l3.914,10.437l-6.523,16.961l-6.524,6.524l-2.609,15.657l5.218,5.218l-2.609,11.743l41.751,18.266l-0,-14.352l33.922,-28.704l7.828,9.133l-2.609,14.352l6.523,18.266l14.352,-11.742l26.094,-16.962l3.915,-37.836l11.742,3.914l2.609,11.742l18.266,-13.047l15.657,-18.266l40.446,0l28.703,6.524l-1.304,20.875l1.304,13.047l-11.742,15.657l1.305,9.133l-9.133,7.828l15.656,20.875l-5.219,5.219l11.743,11.743l7.828,-18.266l7.828,5.218l-11.742,22.18l13.047,-3.914l28.704,1.305l-1.305,-27.399l6.523,-2.609l14.352,9.133l2.61,-20.876l9.133,-9.133l7.828,6.524l5.219,26.094l-6.524,16.961l-15.656,6.524l2.609,11.742l-11.742,14.352l-3.915,14.352l-11.742,1.305l-15.656,11.742l9.133,10.438l20.875,-9.133l10.438,6.523l2.609,31.313l-2.609,20.876l33.922,11.742l1.305,-27.399l-6.524,-6.524l2.61,-24.789l-0,-22.18l7.828,-13.047l10.437,-6.524l1.305,-14.351l10.438,-0l-3.914,35.227l3.914,9.133l-2.61,20.875l6.524,7.828l-1.305,16.961l23.485,15.657l9.133,-26.094l1.305,-9.133l-6.524,-27.399l10.438,-0l5.219,11.742l6.523,0l3.914,13.047l9.133,2.61l2.61,31.313l-3.914,5.219l7.828,32.617l6.523,9.133l7.829,36.532l-3.915,11.743l1.305,11.742l-11.742,10.438l-10.438,-7.829l-11.742,2.61l-2.61,13.047l-6.523,11.742l-9.133,-2.609l-5.219,-15.657l-7.828,-9.133l-1.305,-10.437l-10.438,-9.133l3.915,-24.79l-9.133,-2.609l-9.133,39.141l-10.438,31.313l-14.352,3.914l-9.133,-26.094l-2.609,-61.321l-7.828,-22.18l-31.313,-32.618l-14.352,1.305l-6.524,61.321l2.61,19.571l-9.133,-0l-11.743,13.047l-11.742,2.609l-3.914,19.571l-0,20.875l3.914,14.352l-6.524,9.133l1.305,16.961l-11.742,14.352l-18.266,3.914l-3.914,6.524l-19.571,9.132l-11.742,0l-6.524,-7.828l3.914,-19.57l15.657,-11.743l15.656,-14.352l0,-6.523l9.133,-19.571l-5.219,-22.18l3.914,-10.437l18.266,-16.962l5.219,-11.742l-7.828,-5.219l-14.352,10.438l-35.227,1.304l-3.914,13.048l10.438,3.914l2.609,15.656l-15.656,10.438l-6.524,-6.524l-9.133,13.047l-30.008,1.305l13.047,-16.961l-10.438,-11.742l-10.438,-6.524l-11.742,16.961l-3.914,13.047l-13.047,10.438l-28.704,9.133l-3.914,18.266l-6.523,2.609l-15.657,-1.304l-11.742,7.828l-23.485,-0l-22.18,9.133l-3.914,7.828l-14.352,-2.609l-10.438,5.218l-26.094,3.915l-9.133,11.742l-7.828,-0l-24.789,15.656l-15.657,14.352l-14.352,6.524l-15.656,13.047l-22.18,-0l-6.524,-20.875l-18.266,-11.743l6.524,-26.094l16.961,-24.789l14.352,-37.837l-0,-10.438l9.133,-16.961l-2.61,-9.133l-19.57,1.305l-10.438,9.133l-22.18,11.742l-13.047,11.743l-1.305,-13.048l14.352,-26.094l6.524,9.133l16.961,0l7.828,-10.437l-6.524,-18.266l2.61,-24.79l-3.914,-20.875l2.609,-10.438l26.094,-16.961l-2.609,-14.352l-16.961,-6.523l-6.524,-14.352l-1.305,-11.743l9.133,-23.484l6.524,-7.829l-9.133,-15.656l1.305,-79.587l-6.524,-50.884l3.914,-30.008l-7.828,-7.828l13.047,-11.743l7.828,-26.094l-6.523,-14.352l5.219,-7.828l-3.914,-14.352l5.218,-6.523l-6.523,-14.352l1.305,-14.352l14.351,-22.18l26.094,-32.618l13.048,-22.18Zm-880.679,-688.886l9.133,3.914l-2.609,14.352l-15.657,-6.523l9.133,-11.743Zm-18.266,-3.914l6.524,6.524l-3.914,10.437l-9.133,-2.609l-2.609,-10.438l9.132,-3.914Zm177.441,236.152l6.523,0l2.61,15.657l-15.657,1.305l-3.914,-18.266l10.438,1.304Zm-80.892,-19.57l33.922,-6.524l0,10.438l-23.484,1.305l-10.438,-5.219Zm1229.04,952.437l3.914,16.961l-9.133,0l5.219,-16.961Zm-1304.71,-1123.35l11.742,9.133l-7.828,11.742l-10.438,-6.523l6.524,-14.352Z"/>

<path id="PE" d="M3591.37,1903.2l-3.914,7.828l33.922,15.657l1.305,14.351l9.133,6.524l9.133,-1.305l-3.914,-16.961l6.523,-3.914l33.923,-1.305l16.961,5.219l24.789,-9.133l39.142,-23.485l41.75,-16.961l13.047,0l-13.047,20.876l-13.047,6.523l-6.523,23.485l-14.352,2.609l2.609,9.133l18.266,9.133l-6.523,5.219l3.914,13.047l-23.485,10.438l-19.571,-5.219l-1.304,-9.133l-11.743,-7.828l-13.047,-1.305l-9.133,14.352l-43.055,3.914l-20.876,-9.133l-5.218,-6.524l-15.657,-2.609l-18.266,9.133l-5.219,-19.571l-16.961,-9.133l-14.352,6.524l-6.523,-6.524l1.305,-13.047l6.523,-13.047l0,-11.742l10.438,-23.485l14.352,15.657l-1.305,11.742Z"/>

<path id="MA" d="M3163.42,2901.3l13.048,13.047l-30.009,9.133l9.133,-18.266l7.828,-3.914Zm-83.501,-199.621l6.524,23.485l9.133,7.828l9.133,-7.828l5.218,11.743l-20.875,14.351l3.914,6.524l-10.437,16.961l-2.61,16.961l28.704,0l23.484,19.571l3.915,20.875l9.133,-2.609l10.437,19.571l11.743,5.218l19.57,1.305l19.571,-15.656l10.438,-15.657l9.133,26.094l-52.189,22.18l-5.219,11.743l-15.656,11.742l-7.828,-30.008l-9.133,14.352l-13.047,9.132l-0,10.438l-10.438,9.133l-9.133,1.305l-7.828,-20.876l-6.524,0l-6.523,-3.914l-14.352,-9.133l-14.352,-31.313l-44.36,13.047l-13.047,2.61l-92.634,22.18l-79.588,16.961l-3.914,-2.609l1.305,-104.377l87.415,-20.875l125.252,-28.704l33.923,-39.141l11.742,-2.61Z"/>

<path id="MN" d="M968.903,2282.87l-49.579,32.618l-44.36,18.266l-26.094,15.656l-22.18,20.876l-48.274,58.711l-28.704,27.399l-30.008,24.79l-1.305,5.219l-10.438,14.351l-7.828,2.61l2.609,88.72l-6.523,9.133l-35.227,18.266l-9.133,20.875l-9.133,10.438l-0,20.875l14.352,2.61l10.437,16.961l-9.133,22.18l-3.914,33.922l5.219,23.485l-5.219,24.789l26.094,22.181l20.876,3.914l14.352,16.961l18.265,3.914l16.962,14.352l14.351,22.18l19.571,15.656l13.047,1.305l13.047,5.219l14.352,15.656l6.524,22.18l2.609,40.446l-71.759,3.914l-108.291,3.915l-106.986,3.914l-108.291,1.304l-106.986,1.305l-71.759,0l1.305,-273.989l-11.742,-14.351l-13.047,-2.61l-19.571,-30.008l2.609,-6.524l22.18,-18.266l9.133,-27.398l0,-24.79l-5.218,-32.618l-10.438,-16.961l-5.219,-26.094l-3.914,-6.524l1.305,-35.227l-3.914,-19.57l-2.61,-39.142l0,-35.227l-3.914,-30.008l-9.133,-20.875l-14.352,-54.798l1.305,-39.141l-2.61,-16.962l5.219,-18.265l-11.742,-48.275l-0,-3.914l140.908,1.305l66.541,-1.305l1.304,-2.609l0,-54.798l18.266,1.305l15.657,10.437l1.304,18.266l10.438,39.142l0,16.961l13.047,11.742l11.743,3.914l16.961,-2.609l7.828,9.133l36.532,2.609l11.742,18.266l27.399,-5.219l3.914,-9.133l19.571,-5.218l28.703,1.304l9.133,5.219l24.79,6.524l-5.219,14.351l18.266,-1.304l15.656,32.617l7.829,-13.047l14.351,-6.523l11.743,2.609l9.133,15.657l20.875,5.219l7.828,13.047l11.743,7.828l15.656,-0l15.657,-5.219l19.57,-16.961l14.352,-9.133l9.133,-0l6.524,18.266l26.094,1.305l36.532,-7.829l10.437,2.61l10.438,13.047l7.828,2.609l10.438,-5.219l22.18,1.305Z"/>

<path id="ND" d="M0.652,2616.12l0,-468.924l36.689,1.295l148.737,3.914l-0,3.914l11.742,48.275l-5.219,18.265l2.61,16.962l-1.305,39.141l14.352,54.798l9.133,20.875l3.914,30.008l0,35.227l2.61,39.142l3.914,19.57l-1.305,35.227l3.914,6.524l5.219,26.094l10.438,16.961l5.218,32.618l0,24.79l-99.157,-0l-99.158,-2.61l-52.346,-2.066Z"/>

<path id="AR" d="M1081.11,4106.86l7.828,11.743l-11.742,1.304l5.219,11.743l-24.79,16.961l3.914,11.742l0,15.657l-11.742,6.523l-0,9.133l-9.133,10.438l-0,16.961l3.914,13.047l-10.438,10.438l-5.218,11.742l-9.133,7.829l3.914,11.742l-9.133,10.438l-13.047,5.219l1.304,10.437l-11.742,3.914l-5.219,15.657l3.914,10.438l-1.304,22.18l-27.399,23.484l-5.219,11.743l-10.438,7.828l9.133,9.133l-2.609,9.133l-20.876,7.828l6.524,9.133l-1.305,18.266l-16.961,16.961l5.219,10.438l-6.524,15.656l11.743,7.829l-0,15.656l-6.524,9.133l10.438,7.828l1.305,18.266l-6.524,5.219l0,15.657l-93.939,3.914l-159.174,6.523l-114.815,3.914l-2.609,-83.501l-6.524,-3.914l-24.789,-1.305l-11.743,5.219l-11.742,-13.047l0,-264.856l-24.789,-168.307l67.844,-1.305l133.081,-3.914l134.385,-5.219l100.462,-5.219l108.291,-6.523l13.047,19.57l0,11.743l-16.961,16.961l-14.352,19.571l-2.609,11.742l79.587,-6.524Z"/>

<path id="IA" d="M910.191,3127.02l-1.305,2.61l22.18,15.656l7.829,19.571l27.399,18.266l5.218,13.047l-5.218,32.618l-11.743,11.742l-2.609,20.875l-10.438,10.438l-18.266,6.524l-10.437,9.133l-32.618,5.218l-6.524,7.829l-3.914,19.57l1.305,9.133l10.438,6.524l6.523,10.437l-1.305,19.571l-13.047,19.571l-2.609,18.266l-6.524,7.828l-22.18,10.437l1.305,30.009l-6.524,2.609l-28.703,-24.789l-6.524,-9.133l-24.789,2.609l-131.776,9.133l-53.493,1.305l-53.493,2.609l-52.188,1.305l-148.737,-2.609l-1.305,-9.133l-10.437,-10.438l3.914,-10.438l-1.305,-28.703l-3.914,-3.914l0,-23.485l-5.219,-6.524l5.219,-16.961l-9.133,-2.609l2.61,-19.571l-16.962,-13.047l-2.609,-14.352l5.219,-22.18l-7.829,-11.742l-2.609,-18.266l-11.742,-10.438l-1.305,-9.133l-9.133,-13.047l1.305,-14.352l-6.524,-10.437l0,-19.571l-9.133,-3.914l-5.219,-19.571l-11.742,-15.656l7.828,-14.352l6.524,-18.266l-0,-11.742l5.219,-11.743l-2.61,-14.351l-9.133,-1.305l3.914,-24.79l-6.523,-16.961l87.415,0l106.986,-1.305l108.291,-1.304l106.986,-3.914l108.291,-3.915l71.759,-3.914l6.524,20.876l10.437,2.609l2.61,9.133l-7.829,19.571l6.524,36.532l10.438,26.094l9.133,5.219l30.008,5.218l9.133,16.962l-1.305,5.218Z"/>

<path id="KS" d="M0.652,3976.89l0,-455.311l23.642,0.763l73.064,1.305l170.917,1.304l121.337,0l14.352,14.352l14.352,6.524l7.828,-6.524l14.352,13.047l-18.266,24.79l-6.523,19.57l22.18,24.79l10.437,22.18l24.79,14.352l5.219,322.263l-140.909,1.304l-83.501,-1.304l-140.909,-1.305l-112.362,-2.1Z"/>

<path id="MO" d="M837.127,3454.5l-6.523,10.438l-1.305,20.875l3.914,24.79l6.524,9.133l-0,13.047l11.742,23.484l31.313,24.79l6.524,11.742l28.703,18.266l11.743,18.266l5.219,30.008l14.351,16.962l16.962,-14.352l30.008,11.742l7.828,6.524l-7.828,14.352l1.305,15.656l-7.829,15.657l-11.742,36.531l5.219,14.352l30.008,27.399l23.485,7.828l24.789,15.657l10.438,15.656l11.742,3.914l3.914,20.876l10.438,18.266l0,11.742l-6.523,14.352l26.094,36.532l10.437,-5.219l15.657,9.133l-2.61,19.57l2.61,16.962l-6.524,20.875l-5.218,5.219l-13.048,-9.133l-6.523,22.18l-16.961,-0l5.219,18.266l-11.743,9.133l6.524,10.437l-13.047,2.61l10.437,14.352l-6.523,6.523l-5.219,16.961l-79.587,6.524l2.609,-11.742l14.352,-19.571l16.961,-16.961l0,-11.743l-13.047,-19.57l-108.291,6.523l-100.462,5.219l-134.385,5.219l-133.081,3.914l-67.844,1.305l-0,-75.673l-5.219,-322.263l-24.79,-14.352l-10.437,-22.18l-22.18,-24.79l6.523,-19.57l18.266,-24.79l-14.352,-13.047l-7.828,6.524l-14.352,-6.524l-14.352,-14.352l-11.742,-6.523l1.305,-10.438l-26.094,-35.227l-7.829,-26.094l-7.828,-11.742l148.737,2.609l52.188,-1.305l53.493,-2.609l53.493,-1.305l131.776,-9.133l24.789,-2.609l6.524,9.133l28.703,24.789Z"/>

<path id="NE" d="M0.652,3521.58l0,-456.92l32.775,1.035l27.399,20.875l26.094,14.352l6.524,-1.304l11.742,-11.743l19.571,2.61l40.446,-3.915l19.57,14.352l30.009,7.828l6.523,7.829l9.133,2.609l2.609,9.133l9.133,11.742l14.352,2.61l9.133,3.914l0,19.571l6.524,10.437l-1.305,14.352l9.133,13.047l1.305,9.133l11.742,10.438l2.609,18.266l7.829,11.742l-5.219,22.18l2.609,14.352l16.962,13.047l-2.61,19.571l9.133,2.609l-5.219,16.961l5.219,6.524l0,23.485l3.914,3.914l1.305,28.703l-3.914,10.438l10.437,10.438l1.305,9.133l7.828,11.742l7.829,26.094l26.094,35.227l-1.305,10.438l11.742,6.523l-121.337,0l-170.917,-1.304l-73.064,-1.305l-23.642,-0.763Z"/>

<path id="OK" d="M0.652,4421.29l0,-444.396l112.362,2.1l140.909,1.305l83.501,1.304l140.909,-1.304l-0,75.673l24.789,168.307l0,264.856l-6.523,-0l-28.704,-11.742l-14.352,-3.915l-14.352,-15.656l-30.008,-15.657l-6.523,9.133l-11.743,5.219l-22.18,-2.609l-7.828,-9.133l-22.18,13.047l-10.438,1.305l-10.437,-6.524l-13.048,7.828l-14.351,3.915l-6.524,9.132l-10.438,0l-5.218,9.133l-10.438,-13.047l-10.438,0l-19.57,-19.57l-5.219,9.133l-20.876,-3.914l-6.523,-11.743l-20.875,22.18l-2.61,10.438l-13.047,-7.828l2.609,-11.743l-3.914,-6.523l-20.875,11.742l-11.742,-9.133l-13.047,-1.305l-3.915,-13.047l-9.133,0l-15.656,14.352l-10.438,2.61l-10.437,-3.915l2.609,-13.047l-18.266,-7.828l0,-16.961l-31.313,-1.305l-9.133,9.133l-5.376,0Z"/>

<path id="SD" d="M0.652,3064.66l0,-448.546l52.346,2.066l99.158,2.61l99.157,-0l-9.133,27.398l-22.18,18.266l-2.609,6.524l19.571,30.008l13.047,2.61l11.742,14.351l-1.305,273.989l-15.656,0l6.523,16.961l-3.914,24.79l9.133,1.305l2.61,14.351l-5.219,11.743l-0,11.742l-6.524,18.266l-7.828,14.352l11.742,15.656l5.219,19.571l-14.352,-2.61l-9.133,-11.742l-2.609,-9.133l-9.133,-2.609l-6.523,-7.829l-30.009,-7.828l-19.57,-14.352l-40.446,3.915l-19.571,-2.61l-11.742,11.743l-6.524,1.304l-26.094,-14.352l-27.399,-20.875l-32.775,-1.035Z"/>

<path id="LA" d="M872.355,5114.09l-5.219,1.305l-24.79,-11.742l11.743,-13.047l27.399,9.132l-9.133,14.352Zm296.168,-125.252l-24.789,3.914l-7.828,-9.133l-27.399,-1.304l-13.047,-14.352l-20.876,-2.609l-23.484,27.398l-2.61,11.743l13.047,10.437l23.485,5.219l16.961,-3.914l14.352,-9.133l5.219,-9.133l13.047,7.828l-5.219,15.657l20.875,15.656l9.133,0l5.219,-16.961l18.266,-11.742l0,19.571l14.352,6.523l-10.438,14.352l-5.219,-5.219l-22.18,33.922l-10.437,3.915l7.828,11.742l16.961,6.523l5.219,11.743l10.438,-2.61l13.047,7.829l18.266,-2.61l26.094,30.009l-20.875,19.57l-15.657,-1.305l-10.438,-5.218l-15.656,-23.485l-37.837,-13.047l-3.914,-6.524l-16.961,-11.742l-9.133,1.305l-14.352,-9.133l6.524,26.094l-6.524,13.047l2.61,15.656l-18.266,15.657l-6.524,-11.742l1.305,-13.048l-19.571,-6.523l-22.18,1.305l-18.266,28.703l-16.961,-7.828l-13.047,1.305l-40.446,-7.829l-14.352,-7.828l14.352,-18.266l-9.133,-18.266l-5.219,5.219l-28.703,-3.914l-5.219,-16.961l-10.438,-0l1.305,-13.047l-7.828,-2.61l-26.095,0l3.915,-11.742l-18.266,1.305l-1.305,5.218l-18.266,6.524l-1.305,7.828l6.524,13.047l-22.18,14.352l-36.532,-3.914l-18.266,-5.219l-46.969,-18.266l-23.485,-5.219l-33.923,1.305l-37.836,6.524l-11.742,6.523l-7.829,-16.961l14.352,-7.828l2.609,-15.657l-5.218,-3.914l10.437,-14.352l-1.304,-32.617l-5.219,-15.657l6.523,-9.133l-3.914,-16.961l5.219,-6.524l14.352,-33.922l3.914,-18.266l-5.219,-10.438l7.828,-5.218l-22.18,-43.056l2.61,-6.523l-23.485,-32.618l1.305,-19.571l-11.743,-26.094l-18.266,-16.961l-3.914,-153.956l114.815,-3.914l159.174,-6.523l93.939,-3.914l13.047,13.047l-7.828,10.437l-1.305,35.227l7.828,10.438l1.305,15.657l24.79,15.656l-18.266,40.446l-2.61,10.438l-7.828,5.219l-11.742,16.961l-10.438,3.914l-7.828,18.266l-2.61,26.094l-11.742,11.742l5.219,13.047l-5.219,19.571l-11.742,1.305l3.914,11.742l-2.61,9.133l7.828,13.047l-10.437,9.133l123.947,-6.523l127.862,-7.829l-0,7.829l-11.743,41.75l7.828,16.962l16.962,15.656l7.828,23.485l6.523,13.047l9.133,2.609Z"/>

<path id="TX" d="M0.652,5651.74l0,-1230.45l5.376,0l9.133,-9.133l31.313,1.305l0,16.961l18.266,7.828l-2.609,13.047l10.437,3.915l10.438,-2.61l15.656,-14.352l9.133,0l3.915,13.047l13.047,1.305l11.742,9.133l20.875,-11.742l3.914,6.523l-2.609,11.743l13.047,7.828l2.61,-10.438l20.875,-22.18l6.523,11.743l20.876,3.914l5.219,-9.133l19.57,19.57l10.438,0l10.438,13.047l5.218,-9.133l10.438,0l6.524,-9.132l14.351,-3.915l13.048,-7.828l10.437,6.524l10.438,-1.305l22.18,-13.047l7.828,9.133l22.18,2.609l11.743,-5.219l6.523,-9.133l30.008,15.657l14.352,15.656l14.352,3.915l28.704,11.742l6.523,-0l11.742,13.047l11.743,-5.219l24.789,1.305l6.524,3.914l2.609,83.501l3.914,153.956l18.266,16.961l11.743,26.094l-1.305,19.571l23.485,32.618l-2.61,6.523l22.18,43.056l-7.828,5.218l5.219,10.438l-3.914,18.266l-14.352,33.922l-5.219,6.524l3.914,16.961l-6.523,9.133l5.219,15.657l1.304,32.617l-10.437,14.352l-7.829,0l-9.133,18.266l-1.304,14.352l9.133,15.656l-24.79,-1.304l-79.587,37.836l6.524,-15.656l-19.571,3.914l7.828,-26.094l-7.828,-13.047l-10.438,2.609l-6.523,15.656l-18.266,-9.132l-1.305,27.398l18.266,26.095l-23.485,26.094l-11.742,9.133l-0,15.656l-30.008,26.094l-30.009,18.266l-11.742,3.914l-16.961,0l-52.189,23.485l-7.828,-15.656l-11.742,7.828l-28.704,-2.61l-2.609,10.438l7.828,5.219l15.657,18.266l-33.923,16.961l-16.961,-18.266l-9.133,3.914l9.133,13.047l-0,13.047l-14.352,14.352l-37.836,2.61l7.828,9.133l10.437,5.218l-22.18,31.313l-10.437,-7.828l-35.227,1.305l3.914,5.219l14.352,1.304l3.914,14.352l13.047,9.133l-23.485,54.798l-14.352,-3.914l-14.352,7.828l0,7.828l15.657,2.61l10.438,-6.524l-1.305,22.18l-6.524,3.914l2.61,13.048l-10.438,1.304l-1.305,28.704l9.133,7.828l9.133,37.837l-3.914,16.961l13.047,11.742l-1.304,10.438l6.523,13.047l0,11.742l9.133,7.829l1.305,14.351l13.047,2.61l-15.657,-0l-24.789,16.961l-35.227,-28.704l-16.961,-5.218l-19.571,1.304l-37.994,-3.799Zm148.894,-242.791l-20.875,45.665l-6.524,1.305l19.571,-45.665l7.828,-1.305Zm19.571,-32.617l16.961,-35.227l7.828,3.914l-24.789,31.313Zm86.111,-73.064l-40.446,24.789l-1.305,-3.914l27.399,-19.57l14.352,-1.305Z"/>

<path id="CT" d="M3009.47,2858.25l19.571,73.064l2.609,31.313l-6.524,-3.914l-22.18,11.742l-9.133,1.305l-9.133,7.828l-16.961,3.914l-6.523,6.524l-11.743,-1.305l-18.266,7.829l-39.141,26.094l-39.141,32.617l-7.828,5.219l-13.047,-13.047l22.18,-23.485l-9.133,-10.437l-20.876,-113.51l79.588,-16.961l92.634,-22.18l13.047,-2.61Z"/>

<path id="NH" d="M3078.62,2670.37l5.219,9.133l-3.914,22.18l-11.742,2.61l-33.923,39.141l-125.252,28.704l-15.656,-18.266l3.914,-19.571l-6.524,-40.446l2.61,-6.523l-9.133,-35.227l3.914,-16.962l-1.305,-13.047l7.829,-11.742l-1.305,-15.657l3.914,-41.75l-3.914,-20.876l3.914,-10.437l13.047,-6.524l14.352,-16.961l6.523,-26.094l-14.351,-18.266l6.523,-27.399l-3.914,-16.961l2.609,-36.532l7.829,-10.438l16.961,1.305l3.914,-9.133l86.111,251.809l5.219,26.094l22.18,16.961l2.609,11.743l11.742,9.132Z"/>

<path id="RI" d="M3103.41,2910.44l-7.828,5.219l-6.524,-26.095l6.524,0l7.828,20.876Zm-20.875,-24.79l-14.352,-1.304l-2.61,27.399l6.524,15.656l-3.914,16.961l-11.743,2.61l-24.789,15.656l-2.609,-31.313l-19.571,-73.064l44.36,-13.047l14.352,31.313l14.352,9.133Z"/>

<path id="VT" d="M2909,2772.14l-87.415,20.875l-28.704,-120.033l-7.828,-9.133l-14.352,-0l2.61,-15.657l-14.352,-37.836l-5.219,-5.219l1.305,-26.094l3.914,-3.914l-5.219,-19.571l0,-16.961l-11.742,-13.047l-3.914,-11.743l-1.305,-22.18l-5.219,-5.218l-3.914,-24.79l109.595,-28.703l82.197,-23.485l3.914,16.961l-6.523,27.399l14.351,18.266l-6.523,26.094l-14.352,16.961l-13.047,6.524l-3.914,10.437l3.914,20.876l-3.914,41.75l1.305,15.657l-7.829,11.742l1.305,13.047l-3.914,16.962l9.133,35.227l-2.61,6.523l6.524,40.446l-3.914,19.571l15.656,18.266Z"/>

<path id="AL" d="M1602.99,4213.84l9.133,33.923l20.876,71.759l56.102,197.011l6.524,18.266l5.218,5.219l9.133,23.484l11.743,13.047l6.523,13.048l1.305,16.961l10.438,9.133l-16.962,20.875l1.305,19.571l-7.828,28.703l7.828,19.571l10.438,23.485l-3.914,40.446l3.914,13.047l11.742,14.351l3.914,13.048l-125.252,14.351l-82.196,7.829l-130.471,13.047l-2.61,19.57l19.571,22.18l13.047,10.438l-3.914,15.656l3.914,10.438l2.61,5.219l-7.829,13.047l-13.047,7.828l-1.304,6.524l-24.79,7.828l0,-11.742l-20.875,-14.352l-3.914,-9.133l3.914,-10.438l-6.524,-16.961l-14.352,2.61l-5.218,31.313l1.304,18.265l-32.617,-7.828l-5.219,2.61l-30.009,-228.324l5.219,-227.02l6.524,-233.542l-13.047,-14.352l-1.305,-2.61l83.501,-6.523l97.853,-6.524l139.604,-14.352Z"/>

<path id="FL" d="M2383.21,5093.22l-2.61,20.875l-6.523,9.133l-5.219,-23.485l14.352,-6.523Zm-170.917,-305.302l10.438,2.61l1.304,26.094l11.743,18.266l1.305,13.047l30.008,74.368l15.656,28.704l46.97,73.063l53.493,62.626l-20.875,3.915l-1.305,-18.266l-14.352,-7.829l19.571,49.579l13.047,22.18l58.712,88.72l9.133,22.181l32.617,52.188l3.914,1.305l14.352,23.484l9.133,23.485l7.828,33.922l-2.609,5.219l3.914,41.751l3.914,62.626l-5.219,5.219l0,16.961l-6.523,3.914l-5.219,19.571l-1.305,19.57l6.524,18.266l-9.133,13.047l-2.609,13.048l-22.181,-0l-15.656,18.265l-20.875,-2.609l-6.524,6.524l-23.485,7.828l-15.656,-14.352l1.305,-15.656l11.742,6.523l19.571,6.524l1.304,-7.829l-9.133,-7.828l-16.961,-2.609l-7.828,-5.219l-33.923,-54.798l-11.742,-9.133l-24.789,-6.523l-16.962,1.304l1.305,-9.133l-22.18,-14.351l-7.828,-30.009l-7.828,-23.485l-9.133,1.305l-18.266,-9.133l-9.133,-22.18l-1.305,-30.008l-13.047,-9.133l-3.914,22.18l-16.961,-3.914l-11.743,-13.047l-32.618,-48.274l-3.914,-16.962l-11.742,-6.523l-2.609,-11.743l10.437,-5.218l1.305,-16.962l16.961,-24.789l-6.523,-18.266l-7.829,5.219l-16.961,-11.743l-11.742,-2.609l-3.914,13.047l16.961,5.219l2.609,7.828l-2.609,20.876l-6.524,-0l-18.266,-14.352l-6.523,-1.305l3.914,-44.36l-3.914,-13.047l10.438,-40.446l-2.61,-46.97l-5.219,-23.484l-16.961,-14.352l-5.219,-15.657l-10.437,-7.828l-23.485,3.914l-10.438,-14.352l-10.438,-2.609l-10.437,-15.656l-27.399,-14.352l-2.609,-20.876l-16.962,-5.218l-11.742,-15.657l-13.047,-13.047l-15.657,-7.828l-9.133,-1.305l-24.789,-13.047l-31.313,6.524l-14.352,13.047l7.828,16.961l-22.18,-0l-16.961,13.047l-10.438,10.438l-18.265,11.742l-31.313,5.219l-23.485,7.828l-1.305,-15.656l-9.133,-13.048l-45.665,-31.313l-7.828,-18.265l-19.571,6.523l-27.398,-10.438l-40.446,-7.828l26.094,-14.352l-18.266,-3.914l-15.657,6.524l-10.437,-1.305l-24.79,11.742l-46.969,9.133l13.047,-10.437l-11.743,-9.133l-16.961,9.133l-20.875,24.789l-11.742,-2.609l5.218,-18.266l-7.828,-1.305l-3.914,-10.438l3.914,-15.656l-13.047,-10.438l-19.571,-22.18l2.61,-19.57l130.471,-13.047l82.196,-7.829l125.252,-14.351l9.133,14.351l6.524,19.571l7.828,5.219l170.917,-10.438l174.831,-13.047l6.523,22.18l7.829,6.524l15.656,-3.915l-1.305,-32.617l-5.218,-9.133l-1.305,-13.047l7.828,-11.743l7.828,-2.609l27.399,7.828l27.399,0Z"/>

<path id="GA" d="M2226.64,4679.62l-5.219,-2.609l5.219,-18.266l7.828,0l-7.828,20.875Zm31.313,-104.376l7.828,2.609l-14.352,24.79l-13.047,-2.61l3.914,15.657l-15.656,13.047l-9.133,24.789l-3.914,24.79l6.523,14.351l9.133,5.219l-11.742,22.18l-2.609,18.266l-7.829,10.438l-1.304,16.961l6.523,22.18l-27.399,0l-27.399,-7.828l-7.828,2.609l-7.828,11.743l1.305,13.047l5.218,9.133l1.305,32.617l-15.656,3.915l-7.829,-6.524l-6.523,-22.18l-174.831,13.047l-170.917,10.438l-7.828,-5.219l-6.524,-19.571l-9.133,-14.351l-3.914,-13.048l-11.742,-14.351l-3.914,-13.047l3.914,-40.446l-10.438,-23.485l-7.828,-19.571l7.828,-28.703l-1.305,-19.571l16.962,-20.875l-10.438,-9.133l-1.305,-16.961l-6.523,-13.048l-11.743,-13.047l-9.133,-23.484l-5.218,-5.219l-6.524,-18.266l-56.102,-197.011l-20.876,-71.759l-9.133,-33.923l28.704,-3.914l129.166,-16.961l148.737,-22.18l-3.914,10.438l-15.657,20.875l-3.914,16.961l5.219,5.219l27.399,11.743l14.351,11.742l20.876,-0l15.656,23.485l5.219,15.656l19.571,18.266l5.219,11.742l28.703,14.352l16.961,11.743l9.133,16.961l20.876,7.828l16.961,13.047l1.305,15.657l13.047,5.218l5.219,13.048l9.132,9.133l32.618,13.047l5.219,15.656l10.438,10.438l6.523,15.656l2.61,18.266l28.703,16.961l14.352,26.095l-1.305,16.961l13.047,14.352l7.829,-2.61l16.961,6.524Z"/>

<path id="MS" d="M1283.34,4243.85l13.047,14.352l-6.524,233.542l-5.219,227.02l30.009,228.324l-9.133,10.437l-11.743,-2.609l-23.484,1.305l-14.352,-9.133l-11.743,-2.61l-10.437,10.438l-40.446,15.656l-11.743,6.524l-2.609,11.742l-10.438,0l-9.133,-2.609l-6.523,-13.047l-7.828,-23.485l-16.962,-15.656l-7.828,-16.962l11.743,-41.75l-0,-7.829l-127.862,7.829l-123.947,6.523l10.437,-9.133l-7.828,-13.047l2.61,-9.133l-3.914,-11.742l11.742,-1.305l5.219,-19.571l-5.219,-13.047l11.742,-11.742l2.61,-26.094l7.828,-18.266l10.438,-3.914l11.742,-16.961l7.828,-5.219l2.61,-10.438l18.266,-40.446l-24.79,-15.656l-1.305,-15.657l-7.828,-10.438l1.305,-35.227l7.828,-10.437l-13.047,-13.047l0,-15.657l6.524,-5.219l-1.305,-18.266l-10.438,-7.828l6.524,-9.133l-0,-15.656l-11.743,-7.829l6.524,-15.656l-5.219,-10.438l16.961,-16.961l1.305,-18.266l-6.524,-9.133l20.876,-7.828l2.609,-9.133l-9.133,-9.133l10.438,-7.828l5.219,-11.743l27.399,-23.484l1.304,-22.18l-3.914,-10.438l5.219,-15.657l11.742,-3.914l-1.304,-10.437l13.047,-5.219l9.133,-10.438l-3.914,-11.742l129.166,-7.829l134.385,-10.437Z"/>

<path id="SC" d="M2500.63,4243.85l-20.876,20.875l-18.266,24.79l-18.266,37.836l-2.609,35.227l-18.266,31.313l-11.742,5.219l-13.047,-1.305l-0,15.657l-13.047,20.875l-13.047,7.828l-2.61,11.743l-13.047,14.352l-16.961,7.828l-20.876,18.266l-9.132,2.609l-16.962,-6.523l-3.914,9.133l13.047,5.218l6.524,10.438l-11.743,15.657l-10.437,3.914l-18.266,-11.743l-3.914,6.524l18.266,13.047l-6.524,10.438l-16.961,16.961l-0,5.219l-16.961,-6.524l-7.829,2.61l-13.047,-14.352l1.305,-16.961l-14.352,-26.095l-28.703,-16.961l-2.61,-18.266l-6.523,-15.656l-10.438,-10.438l-5.219,-15.656l-32.618,-13.047l-9.132,-9.133l-5.219,-13.048l-13.047,-5.218l-1.305,-15.657l-16.961,-13.047l-20.876,-7.828l-9.133,-16.961l-16.961,-11.743l-28.703,-14.352l-5.219,-11.742l-19.571,-18.266l-5.219,-15.656l-15.656,-23.485l-20.876,-0l-14.351,-11.742l-27.399,-11.743l-5.219,-5.219l3.914,-16.961l15.657,-20.875l3.914,-10.438l36.532,-16.961l7.828,-1.305l20.875,-15.656l32.618,-11.743l150.041,-15.656l7.829,13.047l11.742,-9.133l19.571,19.571l5.218,19.57l133.081,-19.57l6.523,-0l61.322,44.36l97.853,66.54Z"/>

<path id="IL" d="M1227.24,3106.14l1.305,32.618l9.133,22.18l7.828,5.219l6.524,20.875l10.437,23.485l7.829,7.828l31.313,357.49l-9.133,10.438l3.914,14.352l-6.524,7.828l10.438,22.18l6.523,5.219l-1.304,14.351l7.828,15.657l-3.914,13.047l-7.828,5.219l-1.305,20.875l-13.047,10.438l1.305,5.219l-9.133,16.961l-11.743,3.914l-3.914,14.352l7.828,6.523l-11.742,16.962l2.609,37.836l-1.304,7.828l-10.438,18.266l11.742,16.962l-5.218,7.828l-40.446,13.047l-2.61,22.18l10.438,14.352l-5.219,14.351l-18.266,-5.218l-33.922,-13.047l-16.962,3.914l-14.351,23.484l7.828,11.743l-15.657,-9.133l-10.437,5.219l-26.094,-36.532l6.523,-14.352l0,-11.742l-10.438,-18.266l-3.914,-20.876l-11.742,-3.914l-10.438,-15.656l-24.789,-15.657l-23.485,-7.828l-30.008,-27.399l-5.219,-14.352l11.742,-36.531l7.829,-15.657l-1.305,-15.656l7.828,-14.352l-7.828,-6.524l-30.008,-11.742l-16.962,14.352l-14.351,-16.962l-5.219,-30.008l-11.743,-18.266l-28.703,-18.266l-6.524,-11.742l-31.313,-24.79l-11.742,-23.484l-0,-13.047l-6.524,-9.133l-3.914,-24.79l1.305,-20.875l6.523,-10.438l6.524,-2.609l-1.305,-30.009l22.18,-10.437l6.524,-7.828l2.609,-18.266l13.047,-19.571l1.305,-19.571l-6.523,-10.437l-10.438,-6.524l-1.305,-9.133l3.914,-19.57l6.524,-7.829l32.618,-5.218l10.437,-9.133l18.266,-6.524l10.438,-10.438l2.609,-20.875l11.743,-11.742l5.218,-32.618l-5.218,-13.047l-27.399,-18.266l-7.829,-19.571l-22.18,-15.656l1.305,-2.61l99.158,-6.523l118.728,-6.524l99.158,-7.828Z"/>

<path id="IN" d="M1575.59,3189.64l9.133,61.322l37.837,331.396l-5.219,5.218l6.524,10.438l-3.915,11.743l10.438,2.609l-1.305,15.656l-20.875,5.219l-20.875,14.352l-9.133,-6.523l-20.876,3.914l6.524,24.789l-13.047,16.961l-9.133,6.524l-3.914,19.57l-16.961,5.219l-7.829,13.047l0,22.18l-13.047,11.743l-18.266,-2.61l-11.742,-6.523l-2.609,-10.438l-15.657,6.524l-10.438,15.656l0,13.047l-24.789,6.524l-10.438,-13.047l-24.789,18.266l-3.914,14.351l-43.056,-18.265l-14.351,6.523l-5.219,9.133l-9.133,-5.219l-14.352,3.914l-11.742,-6.523l-0,15.656l-5.219,6.524l-11.743,-1.305l-2.609,-37.836l11.742,-16.962l-7.828,-6.523l3.914,-14.352l11.743,-3.914l9.133,-16.961l-1.305,-5.219l13.047,-10.438l1.305,-20.875l7.828,-5.219l3.914,-13.047l-7.828,-15.657l1.304,-14.351l-6.523,-5.219l-10.438,-22.18l6.524,-7.828l-3.914,-14.352l9.133,-10.438l-31.313,-357.49l11.742,10.438l15.657,2.609l28.703,-11.742l19.571,-13.047l63.93,-6.524l165.698,-19.571l0,9.133Z"/>

<path id="KY" d="M1897.86,3647.6l6.524,26.094l-5.219,15.657l50.884,62.626l14.351,7.828l9.133,7.828l18.266,1.305l-39.141,45.665l-31.313,22.18l-7.828,9.133l-1.305,11.742l-13.047,13.047l-2.609,11.743l-22.18,11.742l-5.219,14.352l-11.743,3.914l-19.57,11.742l-11.743,2.61l-16.961,13.047l-7.828,2.609l-168.307,15.657l-37.837,6.523l-76.978,5.219l-48.274,1.305l-10.438,2.609l-155.26,16.961l-5.219,-3.914l-24.789,-1.304l6.523,28.703l-168.307,14.352l6.523,-22.18l13.048,9.133l5.218,-5.219l6.524,-20.875l-2.61,-16.962l2.61,-19.57l-7.828,-11.743l14.351,-23.484l16.962,-3.914l33.922,13.047l18.266,5.218l5.219,-14.351l-10.438,-14.352l2.61,-22.18l40.446,-13.047l5.218,-7.828l-11.742,-16.962l10.438,-18.266l1.304,-7.828l11.743,1.305l5.219,-6.524l-0,-15.656l11.742,6.523l14.352,-3.914l9.133,5.219l5.219,-9.133l14.351,-6.523l43.056,18.265l3.914,-14.351l24.789,-18.266l10.438,13.047l24.789,-6.524l0,-13.047l10.438,-15.656l15.657,-6.524l2.609,10.438l11.742,6.523l18.266,2.61l13.047,-11.743l0,-22.18l7.829,-13.047l16.961,-5.219l3.914,-19.57l9.133,-6.524l13.047,-16.961l-6.524,-24.789l20.876,-3.914l9.133,6.523l20.875,-14.352l20.875,-5.219l1.305,-15.656l-10.438,-2.609l3.915,-11.743l-6.524,-10.438l5.219,-5.218l11.742,-9.133l10.438,9.133l22.18,-6.524l15.656,9.133l19.571,31.313l13.047,2.609l13.047,-3.914l13.047,2.61l19.571,16.961l7.828,-1.305l13.047,-13.047l19.571,5.219l9.133,7.828l19.571,-6.523l10.437,-15.657l15.657,-6.523l10.437,22.18l16.962,5.219l14.351,15.656Z"/>

<path id="NC" d="M2728.95,3781.98l5.218,-1.305l2.61,0l3.914,-1.304l-5.219,9.133l-6.523,-6.524Zm-2.61,1.305l5.219,11.742l13.047,6.524l15.657,33.922l-20.876,0l-18.266,18.266l-24.789,7.828l-11.742,14.352l-20.876,-2.609l-1.305,16.961l20.876,-2.61l9.133,-7.828l11.742,2.61l20.875,-13.048l18.266,-2.609l-1.304,19.571l6.523,13.047l9.133,3.914l-3.914,-23.485l13.047,-16.961l20.875,18.266l3.915,19.57l-1.305,13.048l-15.657,9.133l-23.484,41.75l-14.352,2.61l-22.18,-3.915l-18.266,5.219l-10.438,9.133l24.79,1.305l3.914,11.742l-19.571,11.743l14.352,6.523l-20.875,24.79l2.609,11.742l13.047,-14.352l10.438,-3.914l22.18,0l6.523,9.133l-15.656,23.485l-9.133,-0l-7.828,10.438l-30.009,3.914l-35.227,20.875l-3.914,10.438l-31.313,26.094l-13.047,16.961l-15.656,28.704l-2.61,14.351l1.305,24.79l-13.047,13.047l-28.704,1.305l-37.836,13.047l-97.853,-66.54l-61.322,-44.36l-6.523,-0l-133.081,19.57l-5.218,-19.57l-19.571,-19.571l-11.742,9.133l-7.829,-13.047l-150.041,15.656l-32.618,11.743l-20.875,15.656l-7.828,1.305l-36.532,16.961l-148.737,22.18l-1.305,-32.618l3.914,-7.828l20.876,-3.914l5.219,-6.523l1.304,-19.571l14.352,-15.657l16.961,-10.437l28.704,-3.914l27.399,-27.399l19.57,-13.047l11.743,-1.305l9.133,-27.399l7.828,2.609l3.914,-11.742l15.657,-10.438l7.828,11.743l10.437,-5.219l9.133,-16.961l22.18,-13.047l15.657,6.523l6.524,-6.523l7.828,-24.79l19.57,-20.875l1.305,-18.266l3.914,-14.352l5.219,2.61l48.274,-3.915l66.54,-10.437l70.455,-9.133l151.346,-27.399l110.9,-22.18l223.105,-48.274Z"/>

<path id="OH" d="M2084.43,3275.76l-16.962,11.743l11.743,16.961l-1.305,9.133l5.219,11.742l-5.219,11.742l-3.914,31.313l1.305,19.571l-6.524,22.18l0,24.79l-18.266,18.266l-6.523,13.047l-9.133,10.437l-18.266,7.829l-11.743,-3.915l-7.828,18.266l-13.047,5.219l-5.219,13.047l2.61,39.141l-7.829,3.915l-20.875,-13.047l-5.219,3.914l-13.047,35.227l6.524,28.703l-7.829,0l-5.218,24.79l-19.571,7.828l-10.438,0l-14.351,-15.656l-16.962,-5.219l-10.437,-22.18l-15.657,6.523l-10.437,15.657l-19.571,6.523l-9.133,-7.828l-19.571,-5.219l-13.047,13.047l-7.828,1.305l-19.571,-16.961l-13.047,-2.61l-13.047,3.914l-13.047,-2.609l-19.571,-31.313l-15.656,-9.133l-22.18,6.524l-10.438,-9.133l-11.742,9.133l-37.837,-331.396l-9.133,-61.322l57.408,-7.828l92.634,-16.961l18.266,1.305l11.742,7.828l14.352,1.305l23.485,26.094l10.437,-7.828l23.485,-1.305l14.352,7.828l27.399,-13.047l22.18,-13.047l18.266,1.305l22.18,-9.133l31.313,-36.532l33.922,-23.485l52.189,-30.008l35.227,199.62Z"/>

<path id="TN" d="M1809.13,3939.85l100.463,-14.352l105.681,-15.657l5.219,-3.914l30.008,-3.914l-3.914,14.352l-1.305,18.266l-19.57,20.875l-7.828,24.79l-6.524,6.523l-15.657,-6.523l-22.18,13.047l-9.133,16.961l-10.437,5.219l-7.828,-11.743l-15.657,10.438l-3.914,11.742l-7.828,-2.609l-9.133,27.399l-11.743,1.305l-19.57,13.047l-27.399,27.399l-28.704,3.914l-16.961,10.437l-14.352,15.657l-1.304,19.571l-5.219,6.523l-20.876,3.914l-3.914,7.828l1.305,32.618l-129.166,16.961l-28.704,3.914l-139.604,14.352l-97.853,6.524l-83.501,6.523l1.305,2.61l-134.385,10.437l-129.166,7.829l9.133,-7.829l5.218,-11.742l10.438,-10.438l-3.914,-13.047l-0,-16.961l9.133,-10.438l-0,-9.133l11.742,-6.523l0,-15.657l-3.914,-11.742l24.79,-16.961l-5.219,-11.743l11.742,-1.304l-7.828,-11.743l5.219,-16.961l6.523,-6.523l-10.437,-14.352l13.047,-2.61l-6.524,-10.437l11.743,-9.133l-5.219,-18.266l16.961,-0l168.307,-14.352l-6.523,-28.703l24.789,1.304l5.219,3.914l155.26,-16.961l10.438,-2.609l48.274,-1.305l76.978,-5.219l37.837,-6.523l168.307,-15.657l7.828,-2.609Z"/>

<path id="VA" d="M2723.74,3562.79l2.609,-5.219l27.399,-9.133l-3.914,9.133l3.914,13.047l-6.523,7.829l-26.095,65.235l-5.218,15.656l-1.305,35.228l-10.438,-16.962l-1.305,-9.133l6.524,-39.141l-5.219,-6.523l11.743,-20.876l-3.915,-10.437l9.133,-7.829l2.61,-20.875Zm-284.427,-150.041l20.876,-0l11.742,6.523l1.305,18.266l9.133,5.219l18.266,1.305l6.523,7.828l14.352,5.219l7.828,2.609l5.219,5.219l2.609,22.18l-7.828,3.914l0,10.438l-11.742,-1.305l-5.219,33.922l7.828,14.352l5.219,1.305l26.094,-11.742l0,9.133l11.743,13.047l10.437,2.609l31.313,-2.609l14.352,16.961l36.532,10.437l2.609,11.743l-5.218,15.656l-0,15.657l-10.438,3.914l13.047,13.047l15.656,7.828l-6.523,10.438l-11.742,-0l7.828,18.266l-7.828,11.742l22.18,5.219l3.914,19.571l-14.352,9.133l-3.914,-7.829l-22.18,-9.133l-3.914,-11.742l-32.618,-2.609l23.485,13.047l9.133,14.352l11.742,-0l14.352,15.656l19.57,-1.305l3.915,-11.742l18.265,2.609l16.962,-2.609l6.523,14.352l20.876,35.227l-2.61,1.305l-11.742,-22.18l-3.914,-0l5.218,23.484l-5.218,1.305l-2.61,1.305l-223.105,48.274l-110.9,22.18l-151.346,27.399l-70.455,9.133l-66.54,10.437l-48.274,3.915l-5.219,-2.61l-30.008,3.914l-5.219,3.914l-105.681,15.657l-100.463,14.352l16.961,-13.047l11.743,-2.61l19.57,-11.742l11.743,-3.914l5.219,-14.352l22.18,-11.742l2.609,-11.743l13.047,-13.047l1.305,-11.742l7.828,-9.133l31.313,-22.18l39.141,-45.665l1.305,11.742l6.524,11.743l15.656,11.742l23.485,7.828l11.742,-2.609l20.876,-20.875l15.656,10.437l10.438,-6.523l22.18,-6.524l7.828,-9.133l0,-11.742l15.657,2.609l22.18,-15.656l9.133,3.914l16.961,-15.657l-2.61,-9.133l7.829,-6.523l-9.133,-10.438l6.523,-20.875l19.571,-32.618l5.219,-27.399l11.742,-18.266l6.524,-26.094l2.609,-23.485l10.438,1.305l7.828,13.047l26.094,2.61l9.133,-15.657l2.609,-19.57l13.048,-33.923l15.656,5.219l10.438,-23.485l9.133,-2.609l20.875,-39.141l-1.305,-16.962l3.914,-28.703l65.236,35.227l6.523,-30.008Z"/>

<path id="WI" d="M1270.29,2672.98l-0,18.266l-10.438,30.008l-3.914,16.961l-5.219,9.133l-9.133,-2.609l-5.219,-11.743l15.657,-40.445l9.133,-3.915l9.133,-15.656Zm-371.842,-168.307l1.304,5.218l18.266,5.219l13.047,24.79l106.987,22.18l31.313,15.656l20.875,1.305l10.438,-2.61l39.141,6.524l7.828,5.219l6.524,19.57l16.961,2.61l13.047,10.438l1.305,31.313l-6.524,16.961l24.789,-0l-5.218,18.266l-0,9.133l14.351,10.437l-2.609,15.657l-18.266,10.437l-1.305,9.133l-11.742,24.79l-5.219,26.094l14.352,-5.219l13.047,-10.437l10.438,-24.79l20.875,-13.047l14.352,10.438l-2.61,18.266l-10.437,26.094l-3.914,32.617l7.828,14.352l-14.352,19.571l-6.523,27.399l-0,15.656l5.218,16.961l-7.828,19.571l0,18.266l-9.133,31.313l6.524,24.789l-1.305,9.133l6.524,11.743l1.304,11.742l7.829,9.133l-1.305,24.79l2.609,24.789l-99.158,7.828l-118.728,6.524l-99.158,6.523l1.305,-5.218l-9.133,-16.962l-30.008,-5.218l-9.133,-5.219l-10.438,-26.094l-6.524,-36.532l7.829,-19.571l-2.61,-9.133l-10.437,-2.609l-6.524,-20.876l-2.609,-40.446l-6.524,-22.18l-14.352,-15.656l-13.047,-5.219l-13.047,-1.305l-19.571,-15.656l-14.351,-22.18l-16.962,-14.352l-18.265,-3.914l-14.352,-16.961l-20.876,-3.914l-26.094,-22.181l5.219,-24.789l-5.219,-23.485l3.914,-33.922l9.133,-22.18l-10.437,-16.961l-14.352,-2.61l-0,-20.875l9.133,-10.438l9.133,-20.875l35.227,-18.266l6.523,-9.133l-2.609,-88.72l7.828,-2.61l10.438,-14.351l15.656,10.437l18.266,-2.609l37.837,-15.657l19.571,-14.351l10.437,2.609l15.657,-14.352l13.047,-2.609l9.133,9.133l-9.133,15.656l-2.61,31.313l16.962,-14.352l18.266,10.438l16.961,2.61Z"/>

<path id="WV" d="M2227.95,3393.18l11.742,76.978l31.313,-33.923l10.438,-15.656l11.742,2.609l16.961,-32.618l5.219,9.133l20.875,2.61l11.743,-2.61l1.304,-14.351l18.266,-5.219l5.219,-10.438l9.133,-2.609l22.18,10.437l9.133,-3.914l5.219,14.352l9.133,2.609l11.742,22.181l-6.523,30.008l-65.236,-35.227l-3.914,28.703l1.305,16.962l-20.875,39.141l-9.133,2.609l-10.438,23.485l-15.656,-5.219l-13.048,33.923l-2.609,19.57l-9.133,15.657l-26.094,-2.61l-7.828,-13.047l-10.438,-1.305l-2.609,23.485l-6.524,26.094l-11.742,18.266l-5.219,27.399l-19.571,32.618l-6.523,20.875l9.133,10.438l-7.829,6.523l2.61,9.133l-16.961,15.657l-9.133,-3.914l-22.18,15.656l-15.657,-2.609l0,11.742l-7.828,9.133l-22.18,6.524l-10.438,6.523l-15.656,-10.437l-20.876,20.875l-11.742,2.609l-23.485,-7.828l-15.656,-11.742l-6.524,-11.743l-1.305,-11.742l-18.266,-1.305l-9.133,-7.828l-14.351,-7.828l-50.884,-62.626l5.219,-15.657l-6.524,-26.094l10.438,0l19.571,-7.828l5.218,-24.79l7.829,0l-6.524,-28.703l13.047,-35.227l5.219,-3.914l20.875,13.047l7.829,-3.915l-2.61,-39.141l5.219,-13.047l13.047,-5.219l7.828,-18.266l11.743,3.915l18.266,-7.829l9.133,-10.437l6.523,-13.047l18.266,-18.266l0,-24.79l6.524,-22.18l-1.305,-19.571l3.914,-31.313l5.219,-11.742l-5.219,-11.742l1.305,-9.133l-11.743,-16.961l16.962,-11.743l23.484,138.299l120.034,-20.875Z"/>

<path id="DE" d="M2687.2,3284.89l-14.352,32.618l9.133,9.133l-1.305,13.047l22.18,18.266l7.829,11.742l6.523,24.79l10.438,9.133l2.609,7.828l20.876,15.656l10.437,-2.609l5.219,16.961l-3.914,15.657l9.133,2.609l5.219,14.352l-1.305,1.305l-2.609,-0l-70.455,15.656l-50.883,-173.526l-2.61,-10.438l3.915,-10.438l13.047,-11.742l20.875,0Z"/>

<path id="DC" d="M2537.16,3474.07l-1.304,-7.828l-6.524,-6.524l-7.828,-2.609l7.828,-11.743l18.266,11.743l-10.438,16.961Z"/>

<path id="MD" d="M2649.37,3307.07l2.61,10.438l50.883,173.526l70.455,-15.656l-1.305,33.922l-9.133,3.914l-2.609,18.266l-6.524,16.961l-27.399,9.133l-2.609,5.219l-28.704,2.609l3.914,-23.484l-15.656,-0l7.828,-11.743l-7.828,-5.219l-13.047,6.524l-24.79,-9.133l-15.656,-16.961l13.047,-32.618l-11.743,-5.219l-13.047,0l1.305,-14.351l11.742,-0l3.915,-14.352l-13.047,-6.524l9.132,-10.438l-1.304,-16.961l-16.961,-1.304l5.218,-27.399l14.352,-14.352l-6.523,-10.438l-13.047,18.266l-23.485,11.743l5.219,7.828l-3.914,11.742l11.742,26.094l-9.133,6.524l5.219,10.438l-6.524,22.18l5.219,6.523l7.828,28.704l18.266,18.266l-1.304,10.437l7.828,13.047l10.437,11.743l-13.047,3.914l-24.789,-9.133l-15.657,2.609l-22.18,-5.218l-16.961,-22.181l-16.961,18.266l-7.828,-2.609l-3.914,-14.352l5.218,-19.57l7.829,-3.915l6.523,-13.047l-1.305,-15.656l10.438,-16.961l-18.266,-11.743l-7.828,11.743l-14.352,-5.219l-6.523,-7.828l-18.266,-1.305l-9.133,-5.219l-1.305,-18.266l-11.742,-6.523l-20.876,-0l-11.742,-22.181l-9.133,-2.609l-5.219,-14.352l-9.133,3.914l-22.18,-10.437l-9.133,2.609l-5.219,10.438l-18.266,5.219l-1.304,14.351l-11.743,2.61l-20.875,-2.61l-5.219,-9.133l-16.961,32.618l-11.742,-2.609l-10.438,15.656l-31.313,33.923l-11.742,-76.978l118.728,-22.18l105.681,-22.18l131.776,-27.399l65.235,-14.352Z"/>

<path id="NJ" d="M2726.35,3243.14l26.094,-32.617l-46.969,-31.313l-5.219,-14.352l-11.742,-0l-6.524,-27.399l7.828,-7.828l1.305,-14.352l-11.742,-11.742l10.437,-13.047l10.438,-23.485l1.305,-14.352l13.047,-15.656l101.767,32.617l1.305,7.828l-5.219,35.228l-5.219,10.437l-6.523,1.305l-5.219,5.219l-3.914,22.18l11.742,6.523l19.571,-2.609l10.437,13.047l1.305,48.274l-5.219,1.305l3.914,24.789l-3.914,16.962l3.914,6.523l-15.656,27.399l-11.743,28.704l-3.914,18.266l-5.219,13.047l-5.218,23.484l-11.743,19.571l-10.437,3.914l2.609,-32.618l-18.266,-6.523l-15.656,5.219l-13.048,-11.743l-14.351,-2.609l-24.79,-16.961l-2.609,-26.094l3.914,-20.876l11.742,-13.047l18.266,-9.133l9.133,-23.485Z"/>

<path id="PA" d="M2714.6,3036.99l-13.047,15.656l-1.305,14.352l-10.438,23.485l-10.437,13.047l11.742,11.742l-1.305,14.352l-7.828,7.828l6.524,27.399l11.742,-0l5.219,14.352l46.969,31.313l-26.094,32.617l-10.437,9.133l-0,10.438l-26.095,15.657l-2.609,6.523l-20.875,0l-13.047,11.742l-3.915,10.438l-65.235,14.352l-131.776,27.399l-105.681,22.18l-118.728,22.18l-120.034,20.875l-23.484,-138.299l-35.227,-199.62l15.656,-9.133l48.274,-40.446l13.047,-7.828l6.524,40.446l95.244,-18.266l90.024,-16.962l165.698,-35.227l138.3,-30.008l35.227,18.266l3.914,6.523l5.219,24.79l10.437,13.047l14.352,6.524l15.657,-1.305l7.828,10.438Z"/>

<path id="ME" d="M3293.89,2410.73l-20.875,14.352l-3.914,-5.219l2.609,-20.875l7.829,-5.219l13.047,9.133l1.304,7.828Zm-27.399,-234.847l0,19.571l23.485,7.828l20.876,-6.524l5.218,10.438l-5.218,7.828l11.742,13.047l-0,16.962l18.266,13.047l9.133,-9.133l9.133,1.304l22.18,32.618l14.352,13.047l-16.962,33.923l-10.437,1.304l-6.524,10.438l-15.656,-1.305l1.304,14.352l-24.789,3.914l-2.609,26.094l-10.438,10.438l-9.133,1.305l-5.219,-13.047l-16.961,3.914l-26.094,22.18l7.828,14.352l-10.438,2.609l-14.352,-1.305l-14.351,-19.57l-14.352,14.351l7.828,9.133l-2.609,9.133l-1.305,41.751l-3.914,14.352l-6.524,5.219l-15.656,-9.133l-5.219,5.219l-0,18.265l-11.742,-5.218l-6.524,7.828l-7.828,28.703l-7.828,-1.304l-18.266,-11.743l-10.438,13.047l-9.133,19.571l9.133,18.266l-14.352,10.438l2.61,19.57l-11.743,13.047l-5.219,39.142l-9.133,5.218l-11.742,-9.132l-2.609,-11.743l-22.18,-16.961l-5.219,-26.094l-86.111,-251.809l13.047,-7.828l13.047,-0l-3.914,-13.047l9.133,-14.352l-1.305,-15.657l6.524,-14.351l15.656,-18.266l-3.914,-7.829l10.438,-23.484l-9.133,-10.438l-2.609,-10.438l3.914,-11.742l-6.524,-9.133l3.914,-24.789l7.828,-13.048l-5.218,-43.055l41.75,-130.471l3.914,-3.914l18.266,1.305l5.219,18.266l19.571,10.437l13.047,-11.742l10.438,-5.219l7.828,-10.437l15.656,-5.219l5.219,-13.047l11.743,1.304l30.008,13.047l23.485,19.571l52.188,155.26l6.523,19.571Z"/>

<path id="MI" d="M1425.55,2609.05l-9.133,-1.305l3.914,-20.875l10.438,16.961l-5.219,5.219Zm388.803,345.748l-2.609,31.313l1.304,26.094l-6.523,11.742l-6.524,3.915l-1.304,-16.962l-9.133,-3.914l-10.438,11.743l-3.914,11.742l1.304,24.789l-15.656,11.743l-2.609,5.219l-1.305,1.304l-3.914,5.219l-1.305,5.219l-3.914,37.837l-5.219,2.609l-13.047,27.399l-3.914,13.047l-92.634,16.961l-57.408,7.828l0,-9.133l-165.698,19.571l-63.93,6.524l13.047,-11.743l10.437,-18.266l10.438,-30.008l10.438,-20.875l7.828,-33.923l2.609,-36.532l-5.218,-37.836l-7.829,-20.875l-32.617,-63.931l-5.219,-11.743l1.305,-11.742l7.828,-14.352l-3.914,-26.094l-9.133,-18.266l10.437,-13.047l11.743,-33.922l-0,-31.313l-5.219,-15.657l3.914,-6.523l13.047,-3.914l1.305,-27.399l13.047,-10.438l9.133,3.914l7.828,-18.266l15.657,-14.352l3.914,11.743l-5.219,32.618l7.828,3.914l3.914,-27.399l11.743,9.133l2.609,-26.094l-5.219,-19.571l5.219,-14.352l16.961,-10.438l13.047,-2.609l1.305,-9.133l-10.438,-11.742l1.305,-16.961l11.743,-16.962l16.961,-11.742l36.532,14.352l14.351,-1.305l10.438,2.609l16.961,19.571l15.657,-1.305l11.742,6.524l19.571,6.523l18.266,1.305l14.351,10.438l-1.304,6.523l10.437,10.438l3.915,9.133l-14.352,6.524l-1.305,11.742l15.657,13.047l9.132,28.704l-1.304,11.742l3.914,32.618l-1.305,13.047l-18.266,11.742l-2.609,31.313l-9.133,10.438l-14.352,2.609l-7.828,19.571l1.305,23.485l3.914,6.523l26.094,7.828l13.047,-19.57l6.523,2.609l7.829,-24.789l10.437,-19.571l18.266,-9.133l16.962,-10.438l13.047,3.915l15.656,14.351l7.828,15.657l13.047,41.751l5.219,11.742l6.524,24.789l9.133,26.095l7.828,11.742Zm-189.183,-443.601l10.438,10.438l-7.828,11.742l-28.704,-2.609l13.047,-13.047l-1.304,-10.438l14.351,3.914Zm-105.681,-45.665l6.523,-9.133l13.048,0l10.437,-7.828l9.133,1.305l-3.914,15.656l7.828,11.743l-13.047,-0l5.219,15.656l-5.219,6.524l24.79,6.523l-1.305,9.133l18.266,14.352l-11.742,5.219l-46.97,-2.61l-22.18,-2.609l-5.219,15.656l1.305,15.657l-10.438,-2.609l-23.485,-19.571l-35.227,-9.133l-20.875,3.914l-10.438,19.571l-44.36,6.523l-18.266,3.914l-10.437,24.79l-14.352,7.828l-9.133,18.266l-9.133,-2.609l6.523,-18.266l-13.047,-10.438l-10.437,22.18l-13.047,5.219l-1.305,-13.047l-7.828,-3.914l-2.61,18.266l-7.828,5.218l-9.133,20.876l-5.219,18.266l-19.57,37.836l-3.915,13.047l-14.351,-10.437l-0,-9.133l5.218,-18.266l-24.789,-0l6.524,-16.961l-1.305,-31.313l-13.047,-10.438l-16.961,-2.61l-6.524,-19.57l-7.828,-5.219l-39.141,-6.524l-10.438,2.61l-20.875,-1.305l-31.313,-15.656l-106.987,-22.18l-13.047,-24.79l-18.266,-5.219l-1.304,-5.218l39.141,-19.571l22.18,-22.18l41.751,-7.828l16.961,-11.743l9.133,-11.742l16.961,-3.914l6.524,-14.352l19.57,-19.571l6.524,11.743l10.437,2.609l11.743,20.875l-2.61,20.876l10.438,-1.305l14.352,-15.656l45.665,2.609l18.266,10.438l5.218,9.133l28.704,35.227l13.047,1.304l15.657,-7.828l10.437,-1.305l10.438,11.743l13.047,-7.828l14.352,7.828l13.047,-18.266l20.875,-13.047l13.047,-11.743l5.219,1.305l23.485,-7.828l36.532,-0l31.313,-18.266l16.961,-1.305l3.914,6.524l-1.305,30.008l24.79,7.828l18.266,-7.828l10.437,10.438l6.524,-6.524Zm-352.271,-110.9l-16.962,5.219l-32.617,36.532l-16.961,31.313l-10.438,-20.876l-11.743,-2.609l0,-13.047l16.962,-22.18l22.18,-13.047l15.656,-6.524l23.485,-2.609l10.438,7.828Zm-90.025,-106.986l-6.524,16.961l-9.133,9.133l-26.094,13.047l-1.305,7.828l-16.961,10.438l-9.133,-11.742l9.133,-9.133l28.704,-16.961l19.57,-14.352l11.743,-5.219Z"/>

<path id="NY" d="M2811.15,3125.72l-1.304,13.047l-11.743,1.304l1.305,-13.047l11.742,-1.304Zm183.964,-125.252l-15.656,15.656l7.828,7.828l10.438,-3.914l10.437,-10.437l6.524,6.523l14.352,-14.352l5.218,3.915l-46.969,39.141l-19.571,15.656l-13.047,2.61l-22.18,15.656l-31.313,11.743l-13.047,11.742l-20.875,9.133l-14.352,11.742l-15.657,-5.219l-14.351,15.657l-7.829,-9.133l7.829,-26.094l15.656,-6.524l2.61,-9.133l20.875,-13.047l2.609,-5.219l30.009,-2.609l10.437,-13.047l36.532,-7.828l19.571,-9.133l22.18,-30.009l11.742,-1.304Zm-409.678,-502.313l142.213,-36.532l3.914,24.79l5.219,5.218l1.305,22.18l3.914,11.743l11.742,13.047l0,16.961l5.219,19.571l-3.914,3.914l-1.305,26.094l5.219,5.219l14.352,37.836l-2.61,15.657l14.352,-0l7.828,9.133l28.704,120.033l-1.305,104.377l3.914,2.609l20.876,113.51l9.133,10.437l-22.18,23.485l13.047,13.047l-13.047,28.704l-11.743,7.828l-2.609,-19.571l-1.305,-7.828l-101.767,-32.617l-7.828,-10.438l-15.657,1.305l-14.352,-6.524l-10.437,-13.047l-5.219,-24.79l-3.914,-6.523l-35.227,-18.266l-138.3,30.008l-165.698,35.227l-90.024,16.962l-95.244,18.266l-6.524,-40.446l28.704,-27.399l9.133,-14.352l20.875,-18.266l9.133,-22.18l11.743,-7.828l2.609,-14.352l-11.742,-19.571l-0,-14.351l-16.962,-1.305l-3.914,-26.094l37.837,-19.571l32.618,-11.742l16.961,-1.305l11.742,-5.219l40.446,0l15.657,7.828l10.437,1.305l16.961,-10.438l41.751,-6.523l27.399,-14.352l3.914,-10.438l22.18,-26.094l18.266,-3.914l3.914,-22.18l-18.266,-28.704l13.047,-7.828l-2.609,-19.57l-16.961,-0l-10.438,-7.829l15.657,-18.266l11.742,-9.133l24.789,-33.922l-3.914,-6.523l6.524,-14.352l35.227,-52.189l13.047,-13.047l24.789,-19.57l16.962,-1.305Z"/>

<path id="Monroe" d="M2357.72,2814.32l8.558,37.152l-12.481,2.703l3.215,13.136l-30.062,6.566l-0.291,-0.299l3.213,-2.275l-1.391,-5.133l-19.549,4.011l-1.114,-7.393l-5.072,0.663l2.073,-14.771l-9.781,1.944l-6.826,-35.426l27.146,0l15.657,7.828l10.437,1.305l16.268,-10.011Z"/>

</svg>