<?xml version="1.0" encoding="UTF-8" standalone="no"?><!DOCTYPE svg PUBLIC "-//W3C//DTD SVG 1.1//EN" "http://www.w3.org/Graphics/SVG/1.1/DTD/svg11.dtd"><svg width="100%" height="100%" viewBox="0 0 20 20" version="1.1" xmlns="http://www.w3.org/2000/svg" xmlns:xlink="http://www.w3.org/1999/xlink" xml:space="preserve" xmlns:serif="http://www.serif.com/" style="fill-rule:evenodd;clip-rule:evenodd;stroke-linejoin:round;stroke-miterlimit:2;"><path d="M14.457,9.185l-1.011,1.385c-0.178,0.243 -0.374,0.473 -0.588,0.685c-0,0 -6.758,6.736 -8.59,8.561c-0.25,0.249 -0.656,0.249 -0.906,-0c-0.784,-0.782 -2.387,-2.379 -3.173,-3.162c-0.121,-0.121 -0.189,-0.284 -0.189,-0.455c-0,-0.171 0.068,-0.334 0.189,-0.455c1.836,-1.829 8.586,-8.557 8.586,-8.557c0.214,-0.213 0.444,-0.409 0.688,-0.586l1.31,-0.95l-2.029,-0.068c-0.622,-0.02 -1.213,-0.276 -1.653,-0.714l-2.164,-2.157c-0.343,-0.342 -0.451,-0.852 -0.277,-1.303c0.175,-0.451 0.6,-0.757 1.084,-0.78l13.015,-0.628c0.334,-0.016 0.659,0.108 0.897,0.343c0.237,0.234 0.366,0.557 0.353,0.889l-0.487,13.112c-0.018,0.486 -0.323,0.914 -0.777,1.092c-0.453,0.177 -0.969,0.07 -1.314,-0.273l-2.075,-2.069c-0.416,-0.414 -0.668,-0.963 -0.712,-1.547l-0.177,-2.363Z"/></svg>