<?xml version="1.0" encoding="UTF-8" standalone="no"?><!DOCTYPE svg PUBLIC "-//W3C//DTD SVG 1.1//EN" "http://www.w3.org/Graphics/SVG/1.1/DTD/svg11.dtd"><svg width="100%" height="100%" viewBox="0 0 15 15" version="1.1" xmlns="http://www.w3.org/2000/svg" xmlns:xlink="http://www.w3.org/1999/xlink" xml:space="preserve" xmlns:serif="http://www.serif.com/" style="fill-rule:evenodd;clip-rule:evenodd;stroke-linejoin:round;stroke-miterlimit:2;"><path d="M4.114,12.943c0,1.136 -0.921,2.057 -2.057,2.057c-1.136,0 -2.057,-0.921 -2.057,-2.057c0,-1.136 0.921,-2.057 2.057,-2.057c1.136,-0 2.057,0.921 2.057,2.057Zm7.886,2.057c0,-6.627 -5.373,-12 -12,-12l0,-3c8.284,-0 15,6.716 15,15l-3,0Zm-2.057,0l-2.914,0c-0,-3.882 -3.147,-7.029 -7.029,-7.029l0,-2.914c5.491,0 9.943,4.452 9.943,9.943Z"/></svg>